<?xml version="1.0" encoding="UTF-8"?>
<svg id="Layer_1" data-name="Layer 1" xmlns="http://www.w3.org/2000/svg" viewBox="0 0 264.23 221"><metadata><c2pa:manifest xmlns:c2pa="http://c2pa.org/manifest">AAA0RGp1bWIAAAAeanVtZGMycGEAEQAQgAAAqgA4m3EDYzJwYQAAADQeanVtYgAAAEdqdW1kYzJtYQARABCAAACqADibcQN1cm46dXVpZDpiYmE0Nzc1Mi1kNjU5LTRlMTQtOWQ0ZS1hYTAyNmQ0N2EwMzQAAAABtGp1bWIAAAApanVtZGMyYXMAEQAQgAAAqgA4m3EDYzJwYS5hc3NlcnRpb25zAAAAANdqdW1iAAAAJmp1bWRjYm9yABEAEIAAAKoAOJtxA2MycGEuYWN0aW9ucwAAAACpY2JvcqFnYWN0aW9uc4GjZmFjdGlvbmtjMnBhLmVkaXRlZG1zb2Z0d2FyZUFnZW50bUFkb2JlIEZpcmVmbHlxZGlnaXRhbFNvdXJjZVR5cGV4U2h0dHA6Ly9jdi5pcHRjLm9yZy9uZXdzY29kZXMvZGlnaXRhbHNvdXJjZXR5cGUvY29tcG9zaXRlV2l0aFRyYWluZWRBbGdvcml0aG1pY01lZGlhAAAArGp1bWIAAAAoanVtZGNib3IAEQAQgAAAqgA4m3EDYzJwYS5oYXNoLmRhdGEAAAAAfGNib3KlamV4Y2x1c2lvbnOBomVzdGFydBjIZmxlbmd0aBlFsGRuYW1lbmp1bWJmIG1hbmlmZXN0Y2FsZ2ZzaGEyNTZkaGFzaFggtgqKRVeJcyTYdz6UiKYTi7y0xRbmGBw/t1uRWFK81pVjcGFkSQAAAAAAAAAAAAAAAgtqdW1iAAAAJGp1bWRjMmNsABEAEIAAAKoAOJtxA2MycGEuY2xhaW0AAAAB32Nib3KoaGRjOnRpdGxlb0dlbmVyYXRlZCBJbWFnZWlkYzpmb3JtYXRtaW1hZ2Uvc3ZnK3htbGppbnN0YW5jZUlEeCx4bXA6aWlkOjI0MmEwODEyLTJmZGYtNGEwNi04NjAyLTY3M2NlNTIzYjJhOW9jbGFpbV9nZW5lcmF0b3J4NkFkb2JlX0lsbHVzdHJhdG9yLzI4LjQgYWRvYmVfYzJwYS8wLjcuNiBjMnBhLXJzLzAuMjUuMnRjbGFpbV9nZW5lcmF0b3JfaW5mb4G/ZG5hbWVxQWRvYmUgSWxsdXN0cmF0b3JndmVyc2lvbmQyOC40/2lzaWduYXR1cmV4GXNlbGYjanVtYmY9YzJwYS5zaWduYXR1cmVqYXNzZXJ0aW9uc4KiY3VybHgnc2VsZiNqdW1iZj1jMnBhLmFzc2VydGlvbnMvYzJwYS5hY3Rpb25zZGhhc2hYIEppwb3/qN5BMHi+JO3M+DE6wdFklTRWcaANawazN9SvomN1cmx4KXNlbGYjanVtYmY9YzJwYS5hc3NlcnRpb25zL2MycGEuaGFzaC5kYXRhZGhhc2hYILvErQuTU9mkWaFQD6zovHbeF6dY1oxO6ZRH8mZ/5TO/Y2FsZ2ZzaGEyNTYAADAQanVtYgAAAChqdW1kYzJjcwARABCAAACqADibcQNjMnBhLnNpZ25hdHVyZQAAAC/gY2JvctKEWQzCogE4JBghglkGEDCCBgwwggP0oAMCAQICEH/ydB/Rxt5DtZR6jmVwnp4wDQYJKoZIhvcNAQELBQAwdTELMAkGA1UEBhMCVVMxIzAhBgNVBAoTGkFkb2JlIFN5c3RlbXMgSW5jb3Jwb3JhdGVkMR0wGwYDVQQLExRBZG9iZSBUcnVzdCBTZXJ2aWNlczEiMCAGA1UEAxMZQWRvYmUgUHJvZHVjdCBTZXJ2aWNlcyBHMzAeFw0yNDAxMTEwMDAwMDBaFw0yNTAxMTAyMzU5NTlaMH8xETAPBgNVBAMMCGNhaS1wcm9kMRMwEQYDVQQKDApBZG9iZSBJbmMuMREwDwYDVQQHDAhTYW4gSm9zZTETMBEGA1UECAwKQ2FsaWZvcm5pYTELMAkGA1UEBhMCVVMxIDAeBgkqhkiG9w0BCQEWEWNhaS1vcHNAYWRvYmUuY29tMIIBIjANBgkqhkiG9w0BAQEFAAOCAQ8AMIIBCgKCAQEA79MAp32GPZZBw7MpK0xuxWJZ2BwXMrmpbg+bvVC487/hbE1ji4PDYa8/UU8SPRHgW7t1pu3+L6j7EGH8ZBKdMCGug1ZhDmYWwHkX24cm1kPw+Fr73JOJhGUfkGZk6SJ+x1+tYG7TBR5SVMZGAXLSKALfUwQBW8/XeSINlhtG7B9/W+v/FEl5yCJOBQenbQUU9cXhMEg7cDndWAaV1zQSZkVh1zSWWfOaH9rQU3rIP5DL06ziScWA2fe1ONesHL21aJpXnrPjV1GN/2QeMR/jbGYpbO5tWy9r9oUpx4i6KmXlCpJWx1Jk+GaY62QnbbiLFpuY9jz1yq+xylLgm2UlwQIDAQAFo4IBjDCCAYgwDAYDVR0TAQH/BAIwADAOBgNVHQ8BAf8EBAMCB4AwHgYDVR0lBBcwFQYJKoZIhvcvAQEMBggrBgEFBQcDBDCBjgYDVR0gBIGGMIGDMIGABgkqhkiG9y8BAgMwczBxBggrBgEFBQcCAjBlDGNZb3UgYXJlIG5vdCBwZXJtaXR0ZWQgdG8gdXNlIHRoaXMgTGljZW5zZSBDZXJ0aWZpY2F0ZSBleGNlcHQgYXMgcGVybWl0dGVkIGJ5IHRoZSBsaWNlbnNlIGFncmVlbWVudC4wXQYDVR0fBFYwVDBSoFCgToZMaHR0cDovL3BraS1jcmwuc3ltYXV0aC5jb20vY2FfN2E1YzNhMGM3MzExNzQwNmFkZDE5MzEyYmMxYmMyM2YvTGF0ZXN0Q1JMLmNybDA3BggrBgEFBQcBAQQrMCkwJwYIKwYBBQUHMAGGG2h0dHA6Ly9wa2ktb2NzcC5zeW1hdXRoLmNvbTAfBgNVHSMEGDAWgBRXKXoyTcz+5DVOwB8kc85zU6vfajANBgkqhkiG9w0BAQsFAAOCAgEAIWPV/Nti76MPfipUnZACP/eVrEv59WObHuWCZHj1By8bGm5UmjTgPQYlXyTj8XE/iY27phgrHg0piDsWDzu5s8B6TKkaMmUvgtk+UgukybbfdtBC6KvtGgy40cO4DkEUoPDitDxT1igbQqdKogAoVKqDEVqnF+CFQQztbGcZhFI9XKTsCQwf9hw7LhJCo6jANBIABNyQtSwWIpPeSEJhPVgWLyKepgQxJMqL6sgYZxGq9pCSQn2gS8pafyQFLByZwEBD/DxytRZZL6b3ZXqF+fZZsE9fsBxpcWFiv8pFvgBQOtCzlSbfG8o7bgBPJXm7mAA8j3t3hDEeEx0Gx8B/9a89pzTebWVrD3SEe0uZl9EbVC++F4EosRJFdYwzuP1iJO1d5I3VxGa9FrVq/FYBGORvvDaTwandizCwae43ozCI97QPEUtS+jJztz1kapHcBsLAh7LxnE82rlmq1o4vfdFsQUz7HEpOkPFkyKohyPTn1FIq4lkJKX3jBA6Na/sxyUZo9uvs4CA+0AeNcTXldyugRUF+mspdbMLiIduigdDLu+LJ3UcxvvLTE3374waDvUD1vzrXVsmJrCxk9CnI/RGmiINSZoDbUQcKPX/PXmCUmMHp0PhnXaanZwSI5Ot0Pit4AnZaU7PvrSQmew1/cp3ZmJcfeB4FGRT3DYprp+lZBqUwggahMIIEiaADAgECAhAMqLZUe4nm0gaJdc2Lm4niMA0GCSqGSIb3DQEBCwUAMGwxCzAJBgNVBAYTAlVTMSMwIQYDVQQKExpBZG9iZSBTeXN0ZW1zIEluY29ycG9yYXRlZDEdMBsGA1UECxMUQWRvYmUgVHJ1c3QgU2VydmljZXMxGTAXBgNVBAMTEEFkb2JlIFJvb3QgQ0EgRzIwHhcNMTYxMTI5MDAwMDAwWhcNNDExMTI4MjM1OTU5WjB1MQswCQYDVQQGEwJVUzEjMCEGA1UEChMaQWRvYmUgU3lzdGVtcyBJbmNvcnBvcmF0ZWQxHTAbBgNVBAsTFEFkb2JlIFRydXN0IFNlcnZpY2VzMSIwIAYDVQQDExlBZG9iZSBQcm9kdWN0IFNlcnZpY2VzIEczMIICIjANBgkqhkiG9w0BAQEFAAOCAg8AMIICCgKCAgEAtx8uvb0Js1xIbP4Mg65sAepReCWkgD6Jp7GyiGTa9ol2gfn5HfOV/HiYjZiOz+TuHFU+DXNad86xEqgVeGVMlvIHGe/EHcKBxvEDXdlTXB5zIEkfl0/SGn7J6vTX8MNybfSi95eQDUOZ9fjCaq+PBFjS5ZfeNmzi/yR+MsA0jKKoWarSRCFFFBpUFQWfAgLyXOyxOnXQOQudjxNj6Wu0X0IB13+IH11WcKcWEWXM4j4jh6hLy29Cd3EoVG3oxcVenMF/EMgD2tXjx4NUbTNB1/g9+MR6Nw5Mhp5k/g3atNExAxhtugC+T3SDShSEJfs2quiiRUHtX3RhOcK1s1OJgT5s2s9xGy5/uxVpcAIaK2KiDJXW3xxN8nXPmk1NSVu/mxtfapr4TvSJbhrU7UA3qhQY9n4On2sbH1X1Tw+7LTek8KCA5ZDghOERPiIp/Jt893qov1bE5rJkagcVg0Wqjh89NhCaBA8VyRt3ovlGyCKdNV2UL3bn5vdFsTk7qqmp9makz1/SuVXYxIf6L6+8RXOatXWaPkmucuLE1TPOeP7S1N5JToFCs80l2D2EtxoQXGCR48K/cTUR5zV/fQ+hdIOzoo0nFn77Y8Ydd2k7/x9BE78pmoeMnw6VXYfXCuWEgj6p7jpbLoxQMoWMCVzlg72WVNhJFlSw4aD8fc6ezeECAwEAAaOCATQwggEwMBIGA1UdEwEB/wQIMAYBAf8CAQAwNQYDVR0fBC4wLDAqoCigJoYkaHR0cDovL2NybC5hZG9iZS5jb20vYWRvYmVyb290ZzIuY3JsMA4GA1UdDwEB/wQEAwIBBjAUBgNVHSUEDTALBgkqhkiG9y8BAQcwVwYDVR0gBFAwTjBMBgkqhkiG9y8BAgMwPzA9BggrBgEFBQcCARYxaHR0cHM6Ly93d3cuYWRvYmUuY29tL21pc2MvcGtpL3Byb2Rfc3ZjZV9jcHMuaHRtbDAkBgNVHREEHTAbpBkwFzEVMBMGA1UEAxMMU1lNQy00MDk2LTMzMB0GA1UdDgQWBBRXKXoyTcz+5DVOwB8kc85zU6vfajAfBgNVHSMEGDAWgBSmHOFtVCRMqI9Icr9uqYzV5Owx1DANBgkqhkiG9w0BAQsFAAOCAgEAcc7lB4ym3C3cyOA7ZV4AkoGV65UgJK+faThdyXzxuNqlTQBlOyXBGFyevlm33BsGO1mDJfozuyLyT2+7IVxWFvW5yYMV+5S1NeChMXIZnCzWNXnuiIQSdmPD82TEVCkneQpFET4NDwSxo8/ykfw6Hx8fhuKz0wjhjkWMXmK3dNZXIuYVcbynHLyJOzA+vWU3sH2T0jPtFp7FN39GZne4YG0aVMlnHhtHhxaXVCiv2RVoR4w1QtvKHQpzfPObR53Cl74iLStGVFKPwCLYRSpYRF7J6vVS/XxW4LzvN2b6VEKOcvJmN3LhpxFRl3YYzW+dwnwtbuHW6WJlmjffbLm1MxLFGlG95aCz31X8wzqYNsvb9+5AXcv8Ll69tLXmO1OtsY/3wILNUEp4VLZTE3wqm3n8hMnClZiiKyZCS7L4E0mClbx+BRSMH3eVo6jgve41/fK3FQM4QCNIkpGs7FjjLy+ptC+JyyWqcfvORrFV/GOgB5hD+G5ghJcIpeigD/lHsCRYsOa5sFdqREhwIWLmSWtNwfLZdJ3dkCc7yRpm3gal6qRfTkYpxTNxxKyvKbkaJDoxR9vtWrC3iNrQd9VvxC3TXtuzoHbqumeqgcAqefWF9u6snQ4Q9FkXzeuJArNuSvPIhgBjVtggH0w0vm/lmCQYiC/Y12GeCxfgYlL33buiZnNpZ1RzdKFpdHN0VG9rZW5zgaFjdmFsWQ42MIIOMjADAgEAMIIOKQYJKoZIhvcNAQcCoIIOGjCCDhYCAQMxDzANBglghkgBZQMEAgEFADCBggYLKoZIhvcNAQkQAQSgcwRxMG8CAQEGCWCGSAGG/WwHATAxMA0GCWCGSAFlAwQCAQUABCDdt8I54I41AGqVm6QqsBqJ+wf64jm6E2O6otIL+0tmbgIRANlDzP8Vai8UwilP0OMxSEwYDzIwMjQxMDA2MTUxMTU3WgIIEDTTjBmz0A6gggu9MIIFBzCCAu+gAwIBAgIQBR6ekdcekQq75D1c7dDd2TANBgkqhkiG9w0BAQsFADBjMQswCQYDVQQGEwJVUzEXMBUGA1UEChMORGlnaUNlcnQsIEluYy4xOzA5BgNVBAMTMkRpZ2lDZXJ0IFRydXN0ZWQgRzQgUlNBNDA5NiBTSEEyNTYgVGltZVN0YW1waW5nIENBMB4XDTIzMDkwODAwMDAwMFoXDTM0MTIwNzIzNTk1OVowWDELMAkGA1UEBhMCVVMxFzAVBgNVBAoTDkRpZ2lDZXJ0LCBJbmMuMTAwLgYDVQQDEydEaWdpQ2VydCBBZG9iZSBBQVRMIFRpbWVzdGFtcCBSZXNwb25kZXIwWTATBgcqhkjOPQIBBggqhkjOPQMBBwNCAARNLK5R+QP/tefzBZdWrDYfEPE7mzrBFX7tKpSaxdLJo7cC9SHh2fwAeyefbtU66YaNQQzfOZX02N9KzQbH0/pso4IBizCCAYcwDgYDVR0PAQH/BAQDAgeAMAwGA1UdEwEB/wQCMAAwFgYDVR0lAQH/BAwwCgYIKwYBBQUHAwgwIAYDVR0gBBkwFzAIBgZngQwBBAIwCwYJYIZIAYb9bAcBMB8GA1UdIwQYMBaAFLoW2W1NhS9zKXaaL3WMaiCPnshvMB0GA1UdDgQWBBSwNapWwyGpi87TuLyLFiVXne804TBaBgNVHR8EUzBRME+gTaBLhklodHRwOi8vY3JsMy5kaWdpY2VydC5jb20vRGlnaUNlcnRUcnVzdGVkRzRSU0E0MDk2U0hBMjU2VGltZVN0YW1waW5nQ0EuY3JsMIGQBggrBgEFBQcBAQSBgzCBgDAkBggrBgEFBQcwAYYYaHR0cDovL29jc3AuZGlnaWNlcnQuY29tMFgGCCsGAQUFBzAChkxodHRwOi8vY2FjZXJ0cy5kaWdpY2VydC5jb20vRGlnaUNlcnRUcnVzdGVkRzRSU0E0MDk2U0hBMjU2VGltZVN0YW1waW5nQ0EuY3J0MA0GCSqGSIb3DQEBCwUAA4ICAQB4K4xCx4QQhFiUgskV+5bC9AvSyYG19a8lWMkjUcR5DEdi6guz0GUSYAzUfpCaKfD+b9gc6f4zK88OFOKWOq2L9yPB6RZSWuLgcFEyFIB1qYvF8XdSRBF/eDzjg4ux8knpF+tANOeQaMxW+xhlWsW9C63kE0V55K+oIDzVD1/RoftknDsZU3UEC4GW5HWL8aNwKenMva4mYo0cTmaojslksTFIYCsXis8KxVul23tGsDYTlF2cyMXOIsaSs1kiLaTyd9GYgUJ+PVNwA2E57IWzfWZEwNaR3/zaL9mVL73XZGfFGL8KPbwby0w755gAZ0TASml2ALN2Qr8PQpAzzlk3lCTBUQLZlMedqIWgN5w/GwielH6UNqRXznUocKW+hir9IPgYHHSBtixzydFH5q/l5qYGYKvxyIHtIY3AgA6Yw4Kts+AdC+MbQANTPDK1MdNocW+9dOJxSqjLr+cyU0Jd7IMKl1Mj/vcx0D/cv2eRcfwEFqzlwluenVez+HBQSZfMx6op5YZDkrWdZttvvR5avngtISdpZBdS7s0XSSW/+dS16DykZ6KRQ54Ol6aA+3husOGKQMffj9NCblKAbGEq3bLhYslskEBgQJ4yOvYIG0i3FvoScrbop2sWsFZSLSZEtnleWeF7MT4O3/NrkZHbTdIUx3iPdwjdzlnkXm5yuzCCBq4wggSWoAMCAQICEAc2N7ckVHzYR6z9KGYqXlswDQYJKoZIhvcNAQELBQAwYjELMAkGA1UEBhMCVVMxFTATBgNVBAoTDERpZ2lDZXJ0IEluYzEZMBcGA1UECxMQd3d3LmRpZ2ljZXJ0LmNvbTEhMB8GA1UEAxMYRGlnaUNlcnQgVHJ1c3RlZCBSb290IEc0MB4XDTIyMDMyMzAwMDAwMFoXDTM3MDMyMjIzNTk1OVowYzELMAkGA1UEBhMCVVMxFzAVBgNVBAoTDkRpZ2lDZXJ0LCBJbmMuMTswOQYDVQQDEzJEaWdpQ2VydCBUcnVzdGVkIEc0IFJTQTQwOTYgU0hBMjU2IFRpbWVTdGFtcGluZyBDQTCCAiIwDQYJKoZIhvcNAQEBBQADggIPADCCAgoCggIBAMaGNQZJs8E9cklRVcclA8TykTepl1Gh1tKD0Z5Mom2gsMyD+Vr2EaFEFUJfpIjzaPp985yJC3+dH54PMx9QEwsmc5Zt+FeoAn39Q7SE2hHxc7Gz7iuAhIoiGN/r2j3EF3+rGSs+QtxnjupRPfDWVtTnKC3r07G1decfBmWNlCnT2exp39mQh0YAe9tEQYncfGpXevA3eZ9drMvohGS0UvJ2R/dhgxndX7RUCyFobjchu0CsX7LeSn3O9TkSZ+8OpWNs5KbFHc02DVzV5huowWR0QKfAcsW6Th+xtVhNef7Xj3OTrCw54qVI1vCwMROpVymWJy71h6aPTnYVVSZwmCZ/oBpHIEPjQ2OAe3VuJyWQmDo4EbP29p7mO1vsgd4iFNmCKseSv6De4z6ic/rnH1pslPJSlRErWHRAKKtzQ87fSqEcazjFKfPKqpZzQmiftkaznTqj1QPgv/CiPMpC3BhIfxQ0z9JMq++bPf4OuGQq+nUoJEHtQr8FnGZJUlD0UfM2SU2LINIsVzV5K6jzRWC8I41Y99xh3pP+OcD5sjClTNfpmEpYPtMDiP6zj9NeS3YSUZPJjAw7W4oiqMEmCPkUEBIDfV8ju2TjY+Cm4T72wnSyPx4JduyrXUZ14mCjWAkBKAAOhFTuzuldyF4wEr1GnrXTdrnSDmuZDNIztM2xAgMBAAGjggFdMIIBWTASBgNVHRMBAf8ECDAGAQH/AgEAMB0GA1UdDgQWBBS6FtltTYUvcyl2mi91jGogj57IbzAfBgNVHSMEGDAWgBTs1+OC0nFdZEzfLmc/57qYrhwPTzAOBgNVHQ8BAf8EBAMCAYYwEwYDVR0lBAwwCgYIKwYBBQUHAwgwdwYIKwYBBQUHAQEEazBpMCQGCCsGAQUFBzABhhhodHRwOi8vb2NzcC5kaWdpY2VydC5jb20wQQYIKwYBBQUHMAKGNWh0dHA6Ly9jYWNlcnRzLmRpZ2ljZXJ0LmNvbS9EaWdpQ2VydFRydXN0ZWRSb290RzQuY3J0MEMGA1UdHwQ8MDowOKA2oDSGMmh0dHA6Ly9jcmwzLmRpZ2ljZXJ0LmNvbS9EaWdpQ2VydFRydXN0ZWRSb290RzQuY3JsMCAGA1UdIAQZMBcwCAYGZ4EMAQQCMAsGCWCGSAGG/WwHATANBgkqhkiG9w0BAQsFAAOCAgEAfVmOwJO2b5ipRCIBfmbW2CFC4bAYLhBNE88wU86/GPvHUF3iSyn7cIoNqilp/GnBzx0H6T5gyNgL5Vxb122H+oQgJTQxZ822EpZvxFBMYh0MCIKoFr2pVs8Vc40BIiXOlWk/R3f7cnQU1/+rT4osequFzUNf7WC2qk+RZp4snuCKrOX9jLxkJodskr2dfNBwCnzvqLx1T7pa96kQsl3p/yhUifDVinF2ZdrM8HKjI/rAJ4JErpknG6skHibBt94q6/aesXmZgaNWhqsKRcnfxI2g55j7+6adcq/Ex8HBanHZxhOACcS2n82HhyS7T6NJuXdmkfFynOlLAlKnN36TU6w7HQhJD5TNOXrd/yVjmScsPT9rp/Fmw0HNT7ZAmyEhQNC3EyTN3B14OuSereU0cZLXJmvkOHOrpgFPvT87eK1MrfvElXvtCl8zOYdBeHo46Zzh3SP9HSjTx/no8Zhf+yvYfvJGnXUsHicsJttvFXseGYs2uJPU5vIXmVnKcPA3v5gA3yAWTyf7YGcWoWa63VXAOimGsJigK+2VQbc61RWYMbRiCQ8KvYHZE/6/pNHzV9m8BPqC3jLfBInwAM1dwvnQI38AC+R2AibZ8GV2QqYphwlHK+Z/GqSFD/yYlvZVVCsfgPrA8g4r5db7qS9EFUrnEw4d2zc4GqEr9u3WfPwxggG4MIIBtAIBATB3MGMxCzAJBgNVBAYTAlVTMRcwFQYDVQQKEw5EaWdpQ2VydCwgSW5jLjE7MDkGA1UEAxMyRGlnaUNlcnQgVHJ1c3RlZCBHNCBSU0E0MDk2IFNIQTI1NiBUaW1lU3RhbXBpbmcgQ0ECEAUenpHXHpEKu+Q9XO3Q3dkwDQYJYIZIAWUDBAIBBQCggdEwGgYJKoZIhvcNAQkDMQ0GCyqGSIb3DQEJEAEEMBwGCSqGSIb3DQEJBTEPFw0yNDEwMDYxNTExNTdaMCsGCyqGSIb3DQEJEAIMMRwwGjAYMBYEFNkauTP+F63pgh6mE/WkOnFOPn59MC8GCSqGSIb3DQEJBDEiBCBUAxazrfVB2idg7QdslwKG+zrgwsCs2cVx7V8RinwIqjA3BgsqhkiG9w0BCRACLzEoMCYwJDAiBCCC2vGUlXs2hAJFj9UnAGn+YscUVvqeC4ar+CfoUyAn2TAKBggqhkjOPQQDAgRHMEUCID9a0O9TugqpKnvqlImiYNiMh/MhmdEI+kTXgNKJhGRZAiEAx4z/V0xXmF3NrkACGiAvfEQqMiIVMdiPai0rXYkd1VJjcGFkWRO0AAAAAAAAAAAAAAAAAAAAAAAAAAAAAAAAAAAAAAAAAAAAAAAAAAAAAAAAAAAAAAAAAAAAAAAAAAAAAAAAAAAAAAAAAAAAAAAAAAAAAAAAAAAAAAAAAAAAAAAAAAAAAAAAAAAAAAAAAAAAAAAAAAAAAAAAAAAAAAAAAAAAAAAAAAAAAAAAAAAAAAAAAAAAAAAAAAAAAAAAAAAAAAAAAAAAAAAAAAAAAAAAAAAAAAAAAAAAAAAAAAAAAAAAAAAAAAAAAAAAAAAAAAAAAAAAAAAAAAAAAAAAAAAAAAAAAAAAAAAAAAAAAAAAAAAAAAAAAAAAAAAAAAAAAAAAAAAAAAAAAAAAAAAAAAAAAAAAAAAAAAAAAAAAAAAAAAAAAAAAAAAAAAAAAAAAAAAAAAAAAAAAAAAAAAAAAAAAAAAAAAAAAAAAAAAAAAAAAAAAAAAAAAAAAAAAAAAAAAAAAAAAAAAAAAAAAAAAAAAAAAAAAAAAAAAAAAAAAAAAAAAAAAAAAAAAAAAAAAAAAAAAAAAAAAAAAAAAAAAAAAAAAAAAAAAAAAAAAAAAAAAAAAAAAAAAAAAAAAAAAAAAAAAAAAAAAAAAAAAAAAAAAAAAAAAAAAAAAAAAAAAAAAAAAAAAAAAAAAAAAAAAAAAAAAAAAAAAAAAAAAAAAAAAAAAAAAAAAAAAAAAAAAAAAAAAAAAAAAAAAAAAAAAAAAAAAAAAAAAAAAAAAAAAAAAAAAAAAAAAAAAAAAAAAAAAAAAAAAAAAAAAAAAAAAAAAAAAAAAAAAAAAAAAAAAAAAAAAAAAAAAAAAAAAAAAAAAAAAAAAAAAAAAAAAAAAAAAAAAAAAAAAAAAAAAAAAAAAAAAAAAAAAAAAAAAAAAAAAAAAAAAAAAAAAAAAAAAAAAAAAAAAAAAAAAAAAAAAAAAAAAAAAAAAAAAAAAAAAAAAAAAAAAAAAAAAAAAAAAAAAAAAAAAAAAAAAAAAAAAAAAAAAAAAAAAAAAAAAAAAAAAAAAAAAAAAAAAAAAAAAAAAAAAAAAAAAAAAAAAAAAAAAAAAAAAAAAAAAAAAAAAAAAAAAAAAAAAAAAAAAAAAAAAAAAAAAAAAAAAAAAAAAAAAAAAAAAAAAAAAAAAAAAAAAAAAAAAAAAAAAAAAAAAAAAAAAAAAAAAAAAAAAAAAAAAAAAAAAAAAAAAAAAAAAAAAAAAAAAAAAAAAAAAAAAAAAAAAAAAAAAAAAAAAAAAAAAAAAAAAAAAAAAAAAAAAAAAAAAAAAAAAAAAAAAAAAAAAAAAAAAAAAAAAAAAAAAAAAAAAAAAAAAAAAAAAAAAAAAAAAAAAAAAAAAAAAAAAAAAAAAAAAAAAAAAAAAAAAAAAAAAAAAAAAAAAAAAAAAAAAAAAAAAAAAAAAAAAAAAAAAAAAAAAAAAAAAAAAAAAAAAAAAAAAAAAAAAAAAAAAAAAAAAAAAAAAAAAAAAAAAAAAAAAAAAAAAAAAAAAAAAAAAAAAAAAAAAAAAAAAAAAAAAAAAAAAAAAAAAAAAAAAAAAAAAAAAAAAAAAAAAAAAAAAAAAAAAAAAAAAAAAAAAAAAAAAAAAAAAAAAAAAAAAAAAAAAAAAAAAAAAAAAAAAAAAAAAAAAAAAAAAAAAAAAAAAAAAAAAAAAAAAAAAAAAAAAAAAAAAAAAAAAAAAAAAAAAAAAAAAAAAAAAAAAAAAAAAAAAAAAAAAAAAAAAAAAAAAAAAAAAAAAAAAAAAAAAAAAAAAAAAAAAAAAAAAAAAAAAAAAAAAAAAAAAAAAAAAAAAAAAAAAAAAAAAAAAAAAAAAAAAAAAAAAAAAAAAAAAAAAAAAAAAAAAAAAAAAAAAAAAAAAAAAAAAAAAAAAAAAAAAAAAAAAAAAAAAAAAAAAAAAAAAAAAAAAAAAAAAAAAAAAAAAAAAAAAAAAAAAAAAAAAAAAAAAAAAAAAAAAAAAAAAAAAAAAAAAAAAAAAAAAAAAAAAAAAAAAAAAAAAAAAAAAAAAAAAAAAAAAAAAAAAAAAAAAAAAAAAAAAAAAAAAAAAAAAAAAAAAAAAAAAAAAAAAAAAAAAAAAAAAAAAAAAAAAAAAAAAAAAAAAAAAAAAAAAAAAAAAAAAAAAAAAAAAAAAAAAAAAAAAAAAAAAAAAAAAAAAAAAAAAAAAAAAAAAAAAAAAAAAAAAAAAAAAAAAAAAAAAAAAAAAAAAAAAAAAAAAAAAAAAAAAAAAAAAAAAAAAAAAAAAAAAAAAAAAAAAAAAAAAAAAAAAAAAAAAAAAAAAAAAAAAAAAAAAAAAAAAAAAAAAAAAAAAAAAAAAAAAAAAAAAAAAAAAAAAAAAAAAAAAAAAAAAAAAAAAAAAAAAAAAAAAAAAAAAAAAAAAAAAAAAAAAAAAAAAAAAAAAAAAAAAAAAAAAAAAAAAAAAAAAAAAAAAAAAAAAAAAAAAAAAAAAAAAAAAAAAAAAAAAAAAAAAAAAAAAAAAAAAAAAAAAAAAAAAAAAAAAAAAAAAAAAAAAAAAAAAAAAAAAAAAAAAAAAAAAAAAAAAAAAAAAAAAAAAAAAAAAAAAAAAAAAAAAAAAAAAAAAAAAAAAAAAAAAAAAAAAAAAAAAAAAAAAAAAAAAAAAAAAAAAAAAAAAAAAAAAAAAAAAAAAAAAAAAAAAAAAAAAAAAAAAAAAAAAAAAAAAAAAAAAAAAAAAAAAAAAAAAAAAAAAAAAAAAAAAAAAAAAAAAAAAAAAAAAAAAAAAAAAAAAAAAAAAAAAAAAAAAAAAAAAAAAAAAAAAAAAAAAAAAAAAAAAAAAAAAAAAAAAAAAAAAAAAAAAAAAAAAAAAAAAAAAAAAAAAAAAAAAAAAAAAAAAAAAAAAAAAAAAAAAAAAAAAAAAAAAAAAAAAAAAAAAAAAAAAAAAAAAAAAAAAAAAAAAAAAAAAAAAAAAAAAAAAAAAAAAAAAAAAAAAAAAAAAAAAAAAAAAAAAAAAAAAAAAAAAAAAAAAAAAAAAAAAAAAAAAAAAAAAAAAAAAAAAAAAAAAAAAAAAAAAAAAAAAAAAAAAAAAAAAAAAAAAAAAAAAAAAAAAAAAAAAAAAAAAAAAAAAAAAAAAAAAAAAAAAAAAAAAAAAAAAAAAAAAAAAAAAAAAAAAAAAAAAAAAAAAAAAAAAAAAAAAAAAAAAAAAAAAAAAAAAAAAAAAAAAAAAAAAAAAAAAAAAAAAAAAAAAAAAAAAAAAAAAAAAAAAAAAAAAAAAAAAAAAAAAAAAAAAAAAAAAAAAAAAAAAAAAAAAAAAAAAAAAAAAAAAAAAAAAAAAAAAAAAAAAAAAAAAAAAAAAAAAAAAAAAAAAAAAAAAAAAAAAAAAAAAAAAAAAAAAAAAAAAAAAAAAAAAAAAAAAAAAAAAAAAAAAAAAAAAAAAAAAAAAAAAAAAAAAAAAAAAAAAAAAAAAAAAAAAAAAAAAAAAAAAAAAAAAAAAAAAAAAAAAAAAAAAAAAAAAAAAAAAAAAAAAAAAAAAAAAAAAAAAAAAAAAAAAAAAAAAAAAAAAAAAAAAAAAAAAAAAAAAAAAAAAAAAAAAAAAAAAAAAAAAAAAAAAAAAAAAAAAAAAAAAAAAAAAAAAAAAAAAAAAAAAAAAAAAAAAAAAAAAAAAAAAAAAAAAAAAAAAAAAAAAAAAAAAAAAAAAAAAAAAAAAAAAAAAAAAAAAAAAAAAAAAAAAAAAAAAAAAAAAAAAAAAAAAAAAAAAAAAAAAAAAAAAAAAAAAAAAAAAAAAAAAAAAAAAAAAAAAAAAAAAAAAAAAAAAAAAAAAAAAAAAAAAAAAAAAAAAAAAAAAAAAAAAAAAAAAAAAAAAAAAAAAAAAAAAAAAAAAAAAAAAAAAAAAAAAAAAAAAAAAAAAAAAAAAAAAAAAAAAAAAAAAAAAAAAAAAAAAAAAAAAAAAAAAAAAAAAAAAAAAAAAAAAAAAAAAAAAAAAAAAAAAAAAAAAAAAAAAAAAAAAAAAAAAAAAAAAAAAAAAAAAAAAAAAAAAAAAAAAAAAAAAAAAAAAAAAAAAAAAAAAAAAAAAAAAAAAAAAAAAAAAAAAAAAAAAAAAAAAAAAAAAAAAAAAAAAAAAAAAAAAAAAAAAAAAAAAAAAAAAAAAAAAAAAAAAAAAAAAAAAAAAAAAAAAAAAAAAAAAAAAAAAAAAAAAAAAAAAAAAAAAAAAAAAAAAAAAAAAAAAAAAAAAAAAAAAAAAAAAAAAAAAAAAAAAAAAAAAAAAAAAAAAAAAAAAAAAAAAAAAAAAAAAAAAAAAAAAAAAAAAAAAAAAAAAAAAAAAAAAAAAAAAAAAAAAAAAAAAAAAAAAAAAAAAAAAAAAAAAAAAAAAAAAAAAAAAAAAAAAAAAAAAAAAAAAAAAAAAAAAAAAAAAAAAAAAAAAAAAAAAAAAAAAAAAAAAAAAAAAAAAAAAAAAAAAAAAAAAAAAAAAAAAAAAAAAAAAAAAAAAAAAAAAAAAAAAAAAAAAAAAAAAAAAAAAAAAAAAAAAAAAAAAAAAAAAAAAAAAAAAAAAAAAAAAAAAAAAAAAAAAAAAAAAAAAAAAAAAAAAAAAAAAAAAAAAAAAAAAAAAAAAAAAAAAAAAAAAAAAAAAAAAAAAAAAAAAAAAAAAAAAAAAAAAAAAAAAAAAAAAAAAAAAAAAAAAAAAAAAAAAAAAAAAAAAAAAAAAAAAAAAAAAAAAAAAAAAAAAAAAAAAAAAAAAAAAAAAAAAAAAAAAAAAAAAAAAAAAAAAAAAAAAAAAAAAAAAAAAAAAAAAAAAAAAAAAAAAAAAAAAAAAAAAAAAAAAAAAAAAAAAAAAAAAAAAAAAAAAAAAAAAAAAAAAAAAAAAAAAAAAAAAAAAAAAAAAAAAAAAAAAAAAAAAAAAAAAAAAAAAAAAAAAAAAAAAAAAAAAAAAAAAAAAAAAAAAAAAAAAAAAAAAAAAAAAAAAAAAAAAAAAAAAAAAAAAAAAAAAAAAAAAAAAAAAAAAAAAAAAAAAAAAAAAAAAAAAAAAAAAAAAAAAAAAAAAAAAAAAAAAAAAAAAAAAAAAAAAAAAAAAAAAAAAAAAAAAAAAAAAAAAAAAAAAAAAAAAAAAAAAAAAAAAAAAAAAAAAAAAAAAAAAAAAAAAAAAAAAAAAAAAAAAAAAAAAAAAAAAAAAAAAAAAAAAAAAAAAAAAAAAAAAAAAAAAAAAAAAAAAAAAAAAAAAAAAAAAAAAAAAAAAAAAAAAAAAAAAAAAAAAAAAAAAAAAAAAAAAAAAAAAAAAAAAAAAAAAAAAAAAAAAAAAAAAAAAAAAAAAAAAAAAAAAAAAAAAAAAAAAAAAAAAAAAAAAAAAAAAAAAAAAAAAAAAAAAAAAAAAAAAAAAAAAAAAAAAAAAAAAAAAAAAAAAAAAAAAAAAAAAAAAAAAAAAAAAAAAAAAAAAAAAAAAAAAAAAAAAAAAAAAAAAAAAAAAAAAAAAAAAAAAAAAAAAAAAAAAAAAAAAAAAAAAAAAAAAAAAAAAAAAAAAAAAAAAAAAAAAAAAAAAAAAAAAAAAAAAAAAAAAAAAAAAAAAAAAAAAAAAAAAAAAAAAAAAAAAAAAAAAAAAAAAAAAAAAAAAAAAAAAAAAAAAAAAAAAAAAAAAAAAAAAAAAAAAAAAAAAAAAAAAAAAAAAAAAAAAAAAAAAAAAAAAAAAAAAAAAAAAAAAAAAAAAAAAAAAAAAAAAAAAAAAAAAAAAAAAAAAAAAAAAAAAAAAAAAAAAAAAAAAAAAAAAAAAAAAAAAAAAAAAAAAAAAAAAAAAAAAAAAAAAAAAAAAAAAAAAAAAAAAAAAAAAAAAAAAAAAAAAAAAAAAAAAAAAAAAAAAAAAAAAAAAAAAAAAAAAAAAAAAAAAAAAAAAAAAAAAAAAAAAAAAAAAAAAAAAAAAAAAAAAAAAAAAAAAAAAAAAAAAAAAAAAAAAAAAAAAAAAAAAAAAAAAAAAAAAAAAAAAAAAAAAAAAAAAAAAAAAAAAAAAAAAAAAAAAAAAAAAAAAAAAAAAAAAAAAAAAAAAAAAAAAAAAAAAAAAAAAAAAAAAAAAAAAAAAAAAAAAAAAAAAAAAAAAAAAAAAAAAAAAAAAAAAAAAAAAAAAAAAAAAAAAAAAAAAAAAAAAAAAAAAAAAAAAAAAAAAAAAAAAAAAAAAAAAAAAAAAAAAAAAAAAAAAAAAAAAAAAAAAAAAAAAAAAAAAAAAAAAAAAAAAAAAAAAAAAAAAAAAAAAAAAAAAAAAAAAAAAAAAAAAAAAAAAAAAAAAAAAAAAAAAAAAAAAAAAAAAAAAAAAAAAAAAAAAAAAAAAAAAAAAAAAAAAAAAAAAAAAAAAAAAAAAAAAAAAAAAAAAAAAAAAAAAAAAAAAAAAAAAAAAAAAAAAAAAAAAAAAAAAAAAAAAAAAAAAAAAAAAAAAAAAAAAAAAAAAAAAAAAAAAAAAAAAAAAAAAAAAAAAAAAAAAAAAAAAAAAAAAAAAAAAAAAAAAAAAAAAAAAAAAAAAAAAAAAAAAAAAAAAAAAAAAAAAAAAAAAAAAAAAAAAAAAAAAAAAAAAAAAAAAAAAAAAAAAAAAAAAAAAAAAAAAAAAAAAAAAAAAAAAAAAAAAAAAAAAAAAAAAAAAAAAAAAAAAAAAAAAAAAAAAAAAAAAAAAAAAAAAAAAAAAAAAAAAAAAAAAAAAAAAAAAAAAAAAAAAAAAAAAAAAAAAAAAAAAAAAAAAAAAAAAAAAAAAAAAAAAAAAAAAAAAAAAAAAAAAAAAAAAAAAAAAAAAAAAAAAAAAAAAAAAAAAAAAAAAAAAPZZAQDb1SRhvhLSxqaQtxzsmAJzJzoHDFTEWr8TGew6MtTTAOYTAKa5z2O6NbBcrEmLjKqgFtEwcSTBqzry5h/ZwqCJD2zBST0bbItahL9z7MvcxhcvO4ehG5+3kkOPbpJljluKoiunm0b+kdWr/7Qbu2k2t7QJfNbIOdrqlrUwXYAIN8tr3puRiS4kEUknHAya7NmPqKMleIJpwaCIDVn6/YVLy8+WPy6XMf/prQvRtV2tJwecY8rcM6whGgqlS9L94TwJPp1RGQjRGyDs5sEO+o8j034sPeDg6uyS9Ls2bnQqaf+wDR8H4cxG2w9xUcKr0eAggOgRoL+6i0YW3f1Bymcl</c2pa:manifest></metadata>
  <defs>
    <style>
      .cls-1 {
        fill: #3f0f15;
      }

      .cls-1, .cls-2 {
        stroke-width: 0px;
      }

      .cls-2 {
        fill: #fff;
      }
    </style>
  </defs>
  <g>
    <path class="cls-1" d="M86.58,87.39c-.38-1.87-.65-3.77-1.16-5.6-.93-3.33-2.08-6.6-3-9.93-.91-3.27,1.15-7.02,4.1-8.11,1.78-.66,3.72-.95,5.61-1.21,7.21-.98,14.46-1.54,21.75-1.57,2.65-.01,5.31-.09,7.96-.21,5.29-.23,9.05,2.06,11.12,6.9,2.95,6.88,5.78,13.81,8.64,20.73.26.62.37,1.31.56,1.96.13,0,.26-.01.39-.02.11-.81.27-1.62.31-2.43.33-6.58.8-13.16.9-19.75.08-5.07,4.62-7.66,8.2-7.02,3.48.62,7.01,1.01,10.5,1.6,2.01.34,3.99.82,5.97,1.29,3.22.77,6.46,1.49,9.64,2.4,2.98.85,6.01,1.65,8.43,3.79,3.69,3.26,5.46,7.3,4.85,12.22-.47,3.79-1.14,7.56-1.75,11.33-.11.68-.37,1.33-.57,1.99.1.05.19.1.29.15.23-.28.46-.56.67-.85,2.91-4.02,5.13-8.42,7.13-12.93,2.07-4.65,7.82-6.8,12.61-4.76,6.72,2.86,13.29,6,19.4,10.03,8.99,5.94,16.42,13.37,21.83,22.73,1.63,2.81,3.27,5.63,4.6,8.58,1.39,3.08,2.45,6.3,3.56,9.5.7,2.02,1.33,4.07,1.8,6.15.71,3.12,1.44,6.26,1.84,9.44.61,4.83.99,9.68,1.4,14.53.36,4.24-.8,7.96-4.1,10.81-2.12,1.83-4.6,2.85-7.44,2.86-2.83.01-5.67.02-8.5.03-1.29,0-2.32-.49-2.84-1.73-.52-1.25-.25-2.64.83-3.38.62-.43,1.52-.58,2.31-.61,2.44-.07,4.88-.02,7.32-.03,2.59-.01,4.73-.93,5.93-3.33.43-.86.73-1.92.69-2.88-.18-4.01-.48-8.01-.82-12.01-.42-4.96-1.48-9.83-2.81-14.6-.98-3.52-2.37-6.94-3.68-10.36-2.03-5.27-4.85-10.11-8.11-14.7-4.96-6.99-11.25-12.57-18.51-17.09-5.35-3.33-10.98-6.11-16.82-8.48-2.25-.92-4.4-.02-5.46,2.13-1.79,3.61-3.48,7.29-5.58,10.72-3,4.9-6.75,9.17-11.93,11.96-2,1.08-3.4.83-4.35-.99-.34-.66-.37-1.69-.14-2.42.88-2.74,2.12-5.38,2.87-8.16.82-3.05,1.26-6.21,1.84-9.33.3-1.62.59-3.23.81-4.86.43-3.24-1.51-7.21-5.19-8.53-3.01-1.08-6.15-1.83-9.25-2.63-2.76-.72-5.54-1.44-8.34-1.95-3.98-.73-7.98-1.28-11.98-1.87-.99-.14-1.34.5-1.34,1.39,0,1.36.07,2.73,0,4.09-.27,5.47-.42,10.96-.95,16.41-.33,3.43-1.24,6.8-1.96,10.18-.3,1.42-.79,2.81-1.18,4.22-.45,1.6-1.63,2.59-3.03,2.58-1.17-.01-2.54-1.32-2.9-2.84-1.02-4.22-2.22-8.41-3.55-12.55-2.21-6.87-5.15-13.45-8.16-19.99-1.35-2.93-2.82-3.93-6-3.83-5.95.2-11.9.35-17.85.65-3.4.17-6.78.57-10.17.93-1.45.15-2.91.39-4.32.74-1.39.35-1.68,1.07-1.23,2.43.93,2.81,2.06,5.57,2.7,8.44.81,3.61,1.37,7.3,1.74,10.98.32,3.09.23,6.23.3,9.34,0,.43-.05.86-.13,1.28-.29,1.46-1.12,2.21-2.62,2.41-1.14.15-2.31-.6-2.91-1.79-1.56-3.09-3.05-6.22-4.72-9.25-2.81-5.08-6.7-9.27-11.14-12.97-1.37-1.15-2.78-2.17-4.54-2.75-1.75-.58-3.49-.67-5.18-.18-7.55,2.21-14.71,5.29-21.18,9.84-5.08,3.58-10.04,7.33-14.16,11.99-2.65,3-5.06,6.22-7.35,9.51-3.47,4.99-5.89,10.53-7.83,16.26-.98,2.9-1.65,5.9-2.46,8.86-1.41,5.16-2.04,10.46-2.47,15.76-.3,3.78-.43,7.59-.45,11.39-.02,3.26,2.9,5.86,6.33,5.86,4.02,0,8.03-.02,12.05-.01,1.01,0,2.02.1,2.68,1.04.57.81,1.07,1.62.59,2.68-.57,1.26-1.46,2-2.89,2-3.59,0-7.17.07-10.76-.01-1.92-.05-3.92-.05-5.72-.61-4.18-1.29-6.78-4.34-7.82-8.54-.41-1.67-.35-3.5-.26-5.24.25-4.72.46-9.45,1.03-14.14.52-4.24,1.41-8.45,2.28-12.64.92-4.48,2.45-8.77,4.15-13.02,1.92-4.8,4.35-9.32,7.15-13.64,3.79-5.85,8.45-10.94,13.74-15.46,5.27-4.5,10.82-8.6,17.04-11.72,5.18-2.6,10.53-4.79,16.19-6.1,2.46-.57,4.9-.08,7.3.62,3.03.87,5.31,2.93,7.6,4.91,3.59,3.11,6.73,6.63,9.37,10.58.14.2.22.44.32.67.11-.09.23-.17.34-.26Z"/>
    <path class="cls-1" d="M141.77,34.25c-.32,4.84-1.68,9.03-5.21,12.29-.82.76-1.71,1.13-2.83.76-1.27-.42-2.06-1.38-2.13-2.57-.04-.77.49-1.72,1.04-2.35,3.33-3.75,4.04-7.92,2.2-12.54-.86-2.16-2.45-3.68-4.49-4.73-3.21-1.65-5.44-4.18-6.19-7.67-.42-1.94-.45-4.11-.07-6.06.77-3.94,2.78-7.28,6.16-9.59,1.04-.71,2.26-1.25,3.46-1.63,1.72-.54,3.09.31,3.67,2.06.41,1.24-.45,2.95-1.93,3.4-2.11.64-3.52,2-4.51,3.86-1.39,2.6-2.06,5.35-.46,8.06.6,1.02,1.65,1.94,2.71,2.48,4.22,2.16,6.68,5.64,7.91,10.07.39,1.4.48,2.89.68,4.16Z"/>
    <path class="cls-1" d="M162.21,37.13c-.31,4.2-2.21,7.5-5.7,9.84-1.23.82-3.12.37-3.9-.78-.91-1.34-.64-2.95.68-4,1.52-1.21,2.76-2.57,2.95-4.65.26-3.02-1.95-5.38-4.27-6.29-1.91-.75-3.72-1.63-5.21-3.1-2.26-2.23-3.06-6.04-2.02-9.04,1.18-3.42,3.47-5.83,6.63-7.36,1.33-.64,2.76-1.42,4.39-.93,1.39.42,2.25,1.51,2.2,2.79-.05,1.42-1.03,2.47-2.49,2.84-2.13.54-3.87,1.63-4.87,3.69-1.01,2.08-.45,3.85,1.65,4.9,1.11.56,2.31.96,3.41,1.53,3.76,1.94,6.57,6.5,6.55,10.56Z"/>
    <path class="cls-1" d="M119.66,13.51c0,1.54-.85,2.57-2.42,2.95-2.16.52-3.83,1.71-4.85,3.72-.96,1.91-.45,3.61,1.4,4.65.74.42,1.54.75,2.33,1.09,4.2,1.84,6.93,4.95,7.71,9.48.64,3.72-.65,6.98-3.25,9.7-.57.59-1.21,1.11-1.86,1.63-1.52,1.21-3.04.88-4.15-.44-1.13-1.34-.69-3.08.55-4.18.77-.68,1.57-1.39,2.12-2.23,2.02-3.06.42-6.3-2.28-7.98-1.24-.77-2.62-1.29-3.93-1.94-5.12-2.54-6.2-8.62-3.44-13.13,1.97-3.22,4.81-5.32,8.58-6.08,1.85-.37,3.46.89,3.47,2.76Z"/>
  </g>
  <g>
    <path class="cls-2" d="M45.07,118.61l-1.93,5.57h-4.13v49.61h-5.18v-49.61h-5.4l1.98-5.57h14.66Z"/>
    <path class="cls-2" d="M75.58,173.23l-4.56,1.65-9.31-28.72h1.28c2.18,0,3.8-.73,4.86-2.2,1.05-1.47,1.58-4.43,1.58-8.87,0-4.19-.54-7.05-1.61-8.6-1.07-1.54-2.92-2.31-5.55-2.31h-1.28v49.61h-5.4v-55.18h7.17c4.19,0,7.27,1.17,9.23,3.5,1.97,2.33,2.95,6.66,2.95,12.98,0,4.7-.49,8.29-1.48,10.77-.99,2.48-2.49,4.13-4.5,4.93l-.77.33,7.41,22.11Z"/>
    <path class="cls-2" d="M107.38,173.78l-5.28.88-7.05-41-6.92,41.01-5.56-.89,9.98-52.31,4.63-4.7,10.2,57.01ZM100.21,165.34l-5.18,7.12-5.07-7.1,10.25-.02Z"/>
    <path class="cls-2" d="M138.63,160.99c0,2.09-.29,3.91-.85,5.46-.57,1.54-1.55,2.94-2.95,4.19-1.4,1.25-2.83,2.09-4.3,2.51-1.47.42-3.36.63-5.68.63h-8.16v-55.18h7.17c2.17,0,3.97.25,5.4.74s2.66,1.44,3.69,2.84c1.03,1.4,1.77,2.95,2.23,4.66.46,1.71.69,3.68.69,5.93v4.63c0,1.54-.03,2.6-.08,3.17s-.21,1.45-.47,2.65c-.26,1.2-.63,2.17-1.13,2.92s-1.13,1.33-1.9,1.74c1.29.44,2.29.89,3,1.35.72.46,1.35,1.28,1.9,2.45.55,1.18.93,2.33,1.13,3.47.2,1.14.3,2.59.3,4.35v1.49ZM130.47,135.09c0-4.19-.54-7.05-1.63-8.6-1.08-1.54-2.93-2.31-5.54-2.31h-1.27v21.99h1.1c2.72,0,4.62-.71,5.71-2.12,1.08-1.41,1.63-4.4,1.63-8.96ZM133.12,159.78c0-3.78-.62-6.1-1.85-6.95-1.23-.84-3.06-1.27-5.48-1.27h-3.75v16.81h3.75c2.28,0,4.07-.53,5.37-1.6,1.3-1.07,1.96-3.4,1.96-7Z"/>
    <path class="cls-2" d="M166.96,173.78h-19.35l12.18-49.61h-12.18l1.99-5.57h17.24l-12.18,49.62h10.33s1.98,5.56,1.98,5.56Z"/>
    <path class="cls-2" d="M202.07,146.22c0,5.66-.23,10.38-.69,14.17-.46,3.79-1.6,7.11-3.42,9.98-1.82,2.87-4.59,4.3-8.3,4.3s-6.47-1.42-8.27-4.27c-1.8-2.85-2.94-6.24-3.42-10.17-.48-3.93-.72-8.6-.72-14,0-5.7.23-10.45.69-14.25.46-3.8,1.59-7.13,3.39-9.98,1.8-2.85,4.58-4.27,8.32-4.27s6.48,1.42,8.3,4.27c1.82,2.85,2.96,6.25,3.42,10.2.46,3.95.69,8.63.69,14.03ZM196.56,146.22c0-4.77-.11-8.59-.33-11.46s-.84-5.51-1.85-7.89c-1.01-2.38-2.58-3.57-4.71-3.57s-3.74,1.14-4.71,3.41c-.97,2.27-1.58,5.05-1.82,8.33-.24,3.28-.36,7.01-.36,11.19s.12,8.07.36,11.22c.24,3.15.85,5.88,1.85,8.19.99,2.31,2.55,3.46,4.69,3.46,2.02,0,3.54-1.17,4.55-3.52,1.01-2.35,1.65-5.13,1.93-8.36.28-3.23.41-6.89.41-11Z"/>
    <path class="cls-2" d="M235.81,173.82l-3.75,1.76-14.44-41.55.06,39.74h-5.51v-52.32l4.69-4.63,13.57,40.69v-38.86s5.4.06,5.4.06v55.11Z"/>
  </g>
  <g>
    <path class="cls-2" d="M88.25,189.99h-7.25v13.26h5.62v3.36h-5.52v13.3h-3.32v-13.3h-2.69l1.16-3.36h1.53v-16.62h9.27l1.2,3.36Z"/>
    <path class="cls-2" d="M103.67,219.91h-3.26v-33.24l3.26-.03v33.28Z"/>
    <path class="cls-2" d="M129,219.58l-2.75,1-5.62-17.32h.77c1.32,0,2.29-.44,2.93-1.33.64-.89.95-2.67.95-5.35,0-2.53-.32-4.26-.97-5.19-.65-.93-1.76-1.4-3.35-1.4h-.77v29.92h-3.26v-33.28h4.32c2.53,0,4.38.7,5.57,2.11,1.19,1.41,1.78,4.02,1.78,7.83,0,2.84-.3,5-.89,6.5s-1.5,2.49-2.72,2.97l-.46.2,4.47,13.34Z"/>
    <path class="cls-2" d="M144.73,219.91h-3.26v-33.24l3.26-.03v33.28Z"/>
    <path class="cls-2" d="M172.19,219.94l-2.26,1.06-8.71-25.06.03,23.97h-3.33v-31.56l2.83-2.79,8.18,24.54v-23.44s3.25.03,3.25.03v33.24Z"/>
    <path class="cls-2" d="M189.15,219.91h-3.26v-33.24l3.26-.03v33.28Z"/>
  </g>
</svg>