<?xml version="1.0" encoding="UTF-8"?>
<svg id="Layer_1" data-name="Layer 1" xmlns="http://www.w3.org/2000/svg" version="1.1" viewBox="0 0 392.5 58.63">
  <defs>
    <style>
      .cls-1 {
        fill: #4c6369;
        stroke-width: 0px;
      }
    </style>
  </defs>
  <path class="cls-1" d="M13.03,3.75c-3.36.17-7.39.67-12.26,1.46-1.06.17-.95-2.18-.06-3.36,22.46-2.86,34.44-.84,34.44,8.23,0,5.71-9.63,36.62-21.78,36.62-6.1,0-4.54-18.65-.34-42.95ZM18.57,3.64c-5.66,31.7-4.93,40.21-3.47,40.21,5.32,0,13.44-22.79,13.44-34.16,0-2.63-1.62-5.6-9.97-6.05Z"/>
  <path class="cls-1" d="M56.37,21.22c0,3.36-2.35,8.01-6.89,9.3-1.34,8.06-6.38,11.98-9.24,11.98-1.96,0-6.33-1.12-6.33-9.24,0-9.97,5.1-13.89,7.39-13.5.95-.9,2.07-1.23,2.8-1.23,3.08,0,5.71,2.41,5.71,7.78,0,.62-.06,1.23-.06,1.79,2.35-.73,4.42-3.08,5.15-7.67.9-.28,1.46.11,1.46.78ZM45.62,30.74c-3.14-.5-5.99-2.63-6.1-5.38-2.18,7.22-.06,14.67,2.13,14.67,2.3,0,3.47-4.76,3.98-9.3ZM45.84,27.72v-1.18c0-4.93-2.41-6.33-2.8-5.04-.67,2.07.62,4.93,2.8,6.22Z"/>
  <path class="cls-1" d="M63.2,25.93c-2.13,4.54-4.31,9.69-6.78,16.07-2.91,1.06-4.09.06-4.09-1.46.06-3.98.84-12.43,1.9-20.38l2.02-.9c1.9-.84,3.36-.11,3.14,1.29-.73,4.37-2.52,11.09-3.19,16.63,3.19-8.46,5.1-12.54,7.67-17.47.84-1.62,3.14-1.9,5.26.67-3.25,15.18-1.9,19.43-.34,19.43,1.18,0,2.52-.78,4.09-4.59.84-.62,2.24-.22,1.96.78-1.01,3.47-3.92,6.5-7.22,6.5-4.37,0-5.88-6.78-4.42-16.58Z"/>
  <path class="cls-1" d="M92.49,35.22c.84-.62,2.24-.22,1.96.78-1.01,3.47-3.64,6.5-6.94,6.5-2.86,0-4.31-2.58-4.59-6.22-1.18,4.14-2.86,6.22-4.93,6.22-6.5,0-6.78-10.92-3.36-22.57,5.26-1.34,5.1-.11,4.59,1.4-3.14,9.97-2.63,17.53-.39,17.53,1.46,0,3.42-4.09,4.48-15.79,2.8-2.07,5.94-2.18,5.43-.11-2.24,9.18-2.41,16.86-.34,16.86,1.18,0,2.52-.78,4.09-4.59Z"/>
  <path class="cls-1" d="M108.51,39.54c1.18,0,2.41-1.34,3.58-4.31.84-.62,2.3-.17,1.96.78-1.46,4.37-4.14,6.5-6.83,6.5s-5.54-2.35-7.17-6.55c-.45-1.18-.45-1.74.11-2.13,4.2-3.08,5.71-7.9,3.98-11.03-5.77,7.62-8.29,17.36-9.02,18.7-.56,1.34-2.24,1.34-3.47.11l3.86-37.97c1.34-.9,6.1-2.3,5.66.39l-4.09,27.05c.28-.73,5.15-12.88,8.46-12.88,5.94,0,4.26,10.58-1.4,15.29,1.01,3.3,2.58,6.05,4.37,6.05Z"/>
  <path class="cls-1" d="M113.77,16.35l-3.02.22c-1.62.17-1.57-1.79-1.01-2.86h4.42l1.23-7.9c2.41-1.57,6.16-2.3,5.43.39-.5,2.52-1.01,4.98-1.46,7.45l3.75-.06c2.41,0,2.58.73,1.79,2.24l-5.99.22c-2.46,13.89-3.64,25.09-.73,25.09,3.3,0,5.49-4.82,6.5-7.62.9-.56,2.24-.34,2.07.67-.45,3.19-4.7,9.18-9.02,9.18-6.78,0-6.61-9.13-3.98-27.05Z"/>
  <path class="cls-1" d="M143.56,35.22c.84-.62,2.24-.22,1.96.78-1.01,3.47-3.92,6.5-7.22,6.55-1.4,0-3.25-.56-4.03-3.58-1.68,2.86-3.25,3.53-5.04,3.53-4.03,0-5.71-4.09-5.71-9.02,0-6.5,3.53-14.34,10.64-14.34,2.41,0,5.43,1.57,4.7,5.15.56.34.95,1.34.34,3.53-1.96,6.78-2.24,11.98.28,11.98,1.18,0,2.52-.78,4.09-4.59ZM133.2,21.84c-3.08,0-4.76,7.5-4.76,12.82,0,2.97.62,5.21,1.79,5.21,1.62,0,3.47-2.8,4.2-11.7-.84-.22-1.12-.62-1.06-1.51,1.34-1.4,2.07-4.82-.17-4.82Z"/>
  <path class="cls-1" d="M173.58,4.2c-1.96,27.89-8.34,41.83-15.12,41.83-2.46,0-5.1-5.94-6.61-17.53,1.46-1.51,4.48-2.97,4.7-.95.73,7.34,1.9,15.62,2.91,15.62,3.92,0,6.89-15.23,8.23-38.36-4.76.5-9.07.95-11.7.95s-2.46-4.03-1.9-5.1c9.35,0,22.12-.67,31.47-.67,2.41,0,2.86.28,1.79,3.36-3.75-.11-8.74.34-13.78.84Z"/>
  <path class="cls-1" d="M193.57,35.22c.84-.62,2.24-.22,1.96.78-1.01,3.47-3.92,6.5-7.22,6.55-1.4,0-3.25-.56-4.03-3.58-1.68,2.86-3.25,3.53-5.04,3.53-4.03,0-5.71-4.09-5.71-9.02,0-6.5,3.53-14.34,10.64-14.34,2.41,0,5.43,1.57,4.7,5.15.56.34.95,1.34.34,3.53-1.96,6.78-2.24,11.98.28,11.98,1.18,0,2.52-.78,4.09-4.59ZM183.21,21.84c-3.08,0-4.76,7.5-4.76,12.82,0,2.97.62,5.21,1.79,5.21,1.62,0,3.47-2.8,4.2-11.7-.84-.22-1.12-.62-1.06-1.51,1.34-1.4,2.07-4.82-.17-4.82Z"/>
  <path class="cls-1" d="M211.54,35.22c.84-.62,2.24-.22,1.96.78-1.01,3.47-3.92,6.5-7.22,6.5-1.62,0-3.47-1.57-5.15-3.47-1.79,2.13-3.7,3.47-5.66,3.47-5.15,0-3.02-13.89,2.41-13.89.39,0,.73.11.9.28,1.12,1.12,2.3,2.8,3.53,4.42,1.23-2.74,2.3-6.16,2.69-10.02-3.14.73-6.55.56-8.96-.22-1.79-.56-2.35-2.52-.34-4.82,2.97,1.06,7.06,1.68,12.1.95.73-.11,1.06.34,1.06,1.01,0,3.42-2.07,9.91-5.1,15.01,1.57,1.96,3.02,3.47,4.26,3.47s2.63-.95,3.53-3.47ZM199.89,37.52c-1.74-2.13-3.08-4.14-3.58-4.14-1.06,0-.73,6.83.73,6.83.5,0,1.62-.95,2.86-2.69Z"/>
  <path class="cls-1" d="M216.81,37.86c.73,2.58,2.24,3.86,4.03,3.86,2.58,0,5.04-3.3,6.5-7.62,1.4-.78,2.18.06,2.07.67-.67,3.75-4.98,9.24-9.69,9.24-4.37,0-8.29-3.47-8.29-10.47,0-12.77,6.16-15.46,8.85-15.46,3.3,0,4.65,2.3,4.65,5.15,0,6.05-4.03,11.31-8.12,14.62ZM216.36,35.34c2.41-2.86,4.48-7.22,4.48-12.66,0-1.23-.28-1.79-.9-1.79-1.01,0-3.64,3.75-3.64,12.94,0,.56,0,1.06.06,1.51Z"/>
  <path class="cls-1" d="M237.81,35.22c1.23-.62,2.35-.22,1.96.78-1.34,3.36-3.92,6.5-7.22,6.5-8.68,0-7.22-15.34-1.12-41.33.62-.62,1.34-.62,1.96-.45,6.83,1.96,5.66,17.42-2.3,28.34-.22,6.55.84,10.75,2.63,10.75,1.18,0,2.52-.78,4.09-4.59ZM231.42,24.36c2.46-5.04,3.75-10.25,2.91-14.45-1.51,5.26-2.46,10.19-2.91,14.45Z"/>
  <path class="cls-1" d="M247.94,35.22c.84-.62,2.24-.22,1.96.78-1.01,3.47-3.92,6.44-7.22,6.5-3.53,0-6.72-5.32-3.14-21.06,4.26-1.79,5.21-.56,4.87.9-2.8,11.93-3.25,17.42-.56,17.42,1.18,0,2.52-.73,4.09-4.54ZM240.1,14.17c0-1.74,1.46-3.08,3.02-3.08s3.42.5,3.42,3.14c0,3.58-6.44,3.7-6.44-.06Z"/>
  <path class="cls-1" d="M253.04,42.5c-3.7,0-5.71-3.53-5.71-9.02,0-6.5,3.53-14.34,10.64-14.34.95,0,1.9.28,2.8,1.23,1.68-.5,3.02.22,2.46,6.1-1.46,15.68-3.42,32.14-14.11,32.14-2.74,0-6.61-1.79-6.61-3.98,0-1.06.78-2.46,2.52-2.3,1.18,2.07,3.19,4.14,5.43,4.14,3.92,0,5.49-5.15,6.55-16.18-1.29,1.51-2.69,2.18-3.98,2.18ZM255.73,9.46c-.62,5.21,4.2,6.27,6.1,0,1.46-.84,2.41-.11,2.3.5-1.79,8.12-13.5,9.63-12.38-.67,1.96-1.18,4.14-1.4,3.98.17ZM257.01,21.84c-4.76,0-6.33,18.03-2.97,18.03,1.51,0,3.42-3.36,4.2-11.87-.17-2.3-.22-4.76.28-5.21-.39-.56-.56-.95-1.51-.95Z"/>
  <path class="cls-1" d="M276.56,35.22c.84-.62,2.24-.22,1.96.78-1.01,3.47-3.92,6.44-7.22,6.5-3.53,0-6.72-5.32-3.14-21.06,4.26-1.79,5.21-.56,4.87.9-2.8,11.93-3.25,17.42-.56,17.42,1.18,0,2.52-.73,4.09-4.54ZM268.72,14.17c0-1.74,1.46-3.08,3.02-3.08s3.42.5,3.42,3.14c0,3.58-6.44,3.7-6.44-.06Z"/>
  <path class="cls-1" d="M286.3,25.93c-2.13,4.54-4.31,9.69-6.78,16.07-2.91,1.06-4.09.06-4.09-1.46.06-3.98.84-12.43,1.9-20.38l2.02-.9c1.9-.84,3.36-.11,3.14,1.29-.73,4.37-2.52,11.09-3.19,16.63,3.19-8.46,5.1-12.54,7.67-17.47.84-1.62,3.14-1.9,5.26.67-3.25,15.18-1.9,19.43-.34,19.43,1.18,0,2.52-.78,4.09-4.59.84-.62,2.24-.22,1.96.78-1.01,3.47-3.92,6.5-7.22,6.5-4.37,0-5.88-6.78-4.42-16.58Z"/>
  <path class="cls-1" d="M341.35,28.62c-.22,4.42-.39,8.85-.5,12.77-2.07,1.01-5.32,1.34-5.15-.67.06-1.18.45-5.82.78-11.87-2.8.17-5.66.39-8.18.62-4.82,9.46-10.14,16.18-16.35,16.18-2.58,0-7.67-1.34-7.67-7.56,0-4.93,4.03-7.22,5.82-4.98-2.35,4.31-.73,9.8,3.3,9.8s7.84-5.49,11.48-13.1c-2.3.22-4.2.39-5.1.39-2.52,0-1.9-2.91-1.34-3.98,2.97,0,5.6,0,8.12.06,3.42-7.84,6.61-17.19,9.3-25.14,5.1-2.02,7.17-.17,7.06,2.24-.28,5.32-.95,14.11-1.46,23.02h1.74c2.74,0,2.35.62,1.79,2.24h-3.64ZM329.81,26.32c2.24,0,4.42,0,6.78.06.28-5.6.62-12.1.73-17.98-2.41,6.22-4.87,12.38-7.5,17.92Z"/>
  <path class="cls-1" d="M365.2,4.48c0,9.07-1.4,18.93-3.92,26.38-.06,6.16.28,8.96,1.18,8.96,1.18,0,2.52-.78,4.09-4.59.84-.62,2.24-.22,1.96.78-1.01,3.47-3.92,6.5-7.22,6.5-1.68,0-2.69-1.68-3.19-4.65-1.85,2.91-4.03,4.59-6.44,4.65-3.25,0-5.49-4.7-5.49-10.3,0-6.38,3.19-13.27,7.62-13.27,2.18,0,3.42.62,4.54,1.34.39-4.93,1.01-10.64,1.68-16.69,4.26-3.14,5.21-2.07,5.21.9ZM358.15,22.46c-.9-.34-1.74-.5-2.69-.5-4.37,0-5.54,17.64-2.41,17.64,2.18,0,3.7-4.14,4.7-10.64.06-1.96.22-4.14.39-6.5Z"/>
  <path class="cls-1" d="M376.63,35.22c.84-.62,2.24-.22,1.96.78-1.01,3.47-3.92,6.5-7.22,6.55-3.53,0-6.72-5.38-3.14-21.11,4.26-1.79,5.21-.56,4.87.9-2.8,11.93-3.25,17.47-.56,17.47,1.18,0,2.52-.78,4.09-4.59Z"/>
  <path class="cls-1" d="M384.63,35.45c2.13,0,3.47,1.23,3.64,3.53.17,1.9-1.46,3.42-3.19,3.42-2.02,0-3.47-1.18-3.64-3.14s1.34-3.81,3.19-3.81ZM384.07,30.46l1.57-26.88c1.34-.9,7.28-2.24,6.83.45-.39,2.69-4.93,26.32-4.93,26.32-.56,1.34-2.46,1.4-3.47.11Z"/>
</svg>