<?xml version="1.0" encoding="UTF-8"?>
<svg id="Layer_1" data-name="Layer 1" xmlns="http://www.w3.org/2000/svg" version="1.1" viewBox="0 0 229 172">
  <defs>
    <style>
      .cls-1 {
        fill: #f1ae3c;
      }

      .cls-1, .cls-2, .cls-3, .cls-4 {
        stroke-width: 0px;
      }

      .cls-2 {
        fill: #000;
      }

      .cls-3 {
        fill: #ed2a48;
      }

      .cls-4 {
        fill: #34000c;
      }
    </style>
  </defs>
  <g>
    <path class="cls-2" d="M52.2,58l11.8,60.8h-9.8l-1.8-10.6h-10.2l-1.8,10.6h-9.7l11.8-60.8h9.7ZM50.9,98.8l-3.5-20.9-3.5,20.9h7.1Z"/>
    <path class="cls-2" d="M60,67.2v-9.3h27.9v9.3h-9v51.6h-9.8v-51.6h-9Z"/>
    <path class="cls-2" d="M91.1,69.9c0-.9.2-1.8.5-2.7.3-.9.6-1.7.9-2.3,1.1-2.2,2.8-3.9,4.9-5.1,2.1-1.2,4.4-1.8,6.7-1.8,2.4,0,4.6.5,6.8,1.7,2.2,1.2,3.9,3,5.2,5.5.4.7.7,1.4,1,2.3.3.9.4,1.9.4,2.9v24.4c0,2.3-.6,4.3-1.8,6-1.2,1.7-2.5,3.1-3.9,4-.8.5-1.5.9-2.1,1.2-.7.3-1.4.5-2.1.7-.7.2-1.4.3-2.1.3-.7,0-1.5,0-2.4,0s-2.1-.2-3.2-.5c-1-.4-2.1-.9-3-1.5-1-.6-1.9-1.4-2.7-2.3-.8-.9-1.5-1.8-1.9-2.8-.3-.5-.6-1.2-.8-2.1-.3-.9-.4-1.8-.4-2.7v-25.1ZM104.3,97.8c.9,0,1.6-.3,2.3-.9.7-.6,1-1.4,1-2.5v-24.1c0-.8-.2-1.4-.6-1.9-.4-.5-1-.9-1.6-1.1-.6-.2-1.2-.2-1.9,0-.6.1-1.2.4-1.7.9-.2.3-.4.6-.6.9-.2.3-.3.7-.3,1.2v24.6c0,1,.3,1.7,1,2.3.7.6,1.5.8,2.3.8Z"/>
    <path class="cls-2" d="M130.1,109.5h14.6v9.3h-24.3v-60.8h9.7v51.6Z"/>
    <path class="cls-2" d="M156.4,77.6l5.9-19.7h9.8l-10.8,36.1v24.9h-9.7v-24.9l-10.8-36.1h9.8l5.8,19.7Z"/>
    <path class="cls-2" d="M183.8,58h14.5v9.3h-14.5v16.5h10.6v9.4h-10.6v16.5h14.5v9.3h-24.3v-60.8h9.8Z"/>
    <rect class="cls-2" x="91.1" y="110.7" width="26.4" height="8.6"/>
  </g>
  <g>
    <path class="cls-2" d="M65.5,32.9h0s.9,1.8.9,1.8l-5.6-2.7,2.3,4.2c.1.3.2.5.2.7,0,.2,0,.4,0,.6,0,.2-.1.4-.2.5,0,.2-.2.3-.3.4l-.6.7-1-.9.6-.7c0,0,.1-.1.2-.2,0,0,0-.1,0-.2,0,0,0-.1,0-.2,0,0,0-.1,0-.2l-3.7-7.1h0s5.4,2.5,5.4,2.5l-2.7-5.3h0s6.6,3.2,6.6,3.2l.6.3c0,0,.2,0,.2,0,0,0,.1,0,.2,0,0,0,.1,0,.2-.1,0,0,.1-.1.2-.2l.6-.7,1,.9-.6.7c-.1.1-.3.2-.4.3-.1.1-.3.2-.5.2-.2,0-.4,0-.6,0-.2,0-.5,0-.7-.2l-1.1-.6-3.1-1.6,1.9,3.7Z"/>
    <path class="cls-2" d="M72,26.2c-.1.1-.2.3-.2.4,0,.2,0,.3.1.5s.3.2.4.3c.1,0,.2,0,.4-.1,0,0,0,0,0,0,0,0,0,0,0,0,0,0,0,0,0,0,0,0,0,0,0,0h.2c0-.2,0-.2.1-.2h0c.2-.2.4-.5.5-.8,0-.3.1-.6,0-.9h1.3c0,.5,0,1-.2,1.6-.2.5-.5,1-1,1.3-.4.3-.7.5-1.2.6-.4.1-.8.1-1.3,0-.4,0-.8-.2-1.2-.4-.4-.2-.7-.5-1-.9-.3-.4-.5-.8-.6-1.2s-.1-.8,0-1.3c0-.4.2-.8.4-1.2.2-.4.5-.7.8-1s.7-.5,1.2-.6c.4-.1.8-.1,1.3,0,.4,0,.8.2,1.2.4.4.2.7.5,1,.9,0,0,.1.2.2.3,0,0,.1.2.2.3l-2.9,2.2ZM73,23.7c-.2-.1-.4-.2-.7-.3-.2,0-.5,0-.7,0h0c-.3,0-.5.2-.7.3h-.1c0,0,0,.1,0,.1,0,0,0,0,0,0h0c0,0-.1.2-.1.2h0c-.3.4-.4.8-.4,1.2s.1.9.4,1.3h0c0-.2,0-.5.2-.8.1-.3.3-.5.6-.7l1.8-1.4Z"/>
    <path class="cls-2" d="M79.2,24.4l-1.1.7-2.4-4c0-.2-.2-.3-.4-.3-.2,0-.3,0-.5,0s-.3.2-.3.4l-1.3-.3c0-.2.2-.5.3-.7.1-.2.3-.4.6-.5.3-.2.6-.3.9-.3.3,0,.6,0,.9.2.1-.4.3-.8.5-1.1.2-.3.6-.6.9-.9.5-.3,1.1-.5,1.6-.5.6,0,1.1.1,1.6.4l-.6,1.2c-.3-.2-.6-.2-1-.2-.3,0-.7,0-1,.3-.2.1-.4.3-.6.5-.1.2-.3.4-.3.7,0,.2,0,.5,0,.8,0,.3.1.5.3.7l1.7,2.9Z"/>
    <path class="cls-2" d="M83.4,18.2c.1.2.3.5.5.6.2.2.4.3.6.4s.5.1.7.1.5,0,.8-.2c.3-.2.6-.4.8-.7.2-.3.3-.6.3-.9l1.3.2c0,.6-.2,1.1-.5,1.6-.3.5-.7.8-1.3,1.1-.4.2-.8.3-1.3.3-.4,0-.8,0-1.2-.2-.4-.1-.8-.4-1.1-.7-.3-.3-.6-.7-.8-1.1-.2-.4-.3-.8-.3-1.3,0-.4,0-.9.2-1.3.1-.4.3-.8.6-1.1.3-.3.6-.6,1-.8.2-.1.5-.2.8-.2s.5,0,.7.1c.2,0,.4.2.6.4.2.2.4.4.5.6.1.2.2.5.2.8,0,.3,0,.5-.1.8l-1.2-.5c0-.2,0-.3,0-.5,0-.2-.2-.3-.4-.3-.2,0-.3,0-.5,0-.2.1-.5.3-.6.5-.2.2-.3.4-.4.6s-.1.5-.1.8c0,.3,0,.5.2.8Z"/>
    <path class="cls-2" d="M94.7,16.5c-.2.3-.4.6-.7.8-.3.2-.6.4-.9.5h0c-.4.1-.8.2-1.3.1-.4,0-.8-.2-1.2-.4-.4-.2-.7-.5-1-.8-.3-.3-.5-.7-.6-1.1-.1-.4-.2-.9-.2-1.3,0-.4.1-.8.3-1.2.2-.4.4-.7.8-1,.3-.3.7-.5,1.1-.6.3-.1.7-.2,1.1-.2.4,0,.7,0,1,.2l-.2-.6,1.2-.4,1.5,4.5c0,.2.2.3.3.3.1,0,.3,0,.5,0,.2,0,.3-.2.4-.3l1.2.6c-.1.2-.3.4-.5.6-.2.2-.4.3-.7.4-.3.1-.7.1-1,0s-.6-.2-.9-.4c0,0,0,.1,0,.2,0,0,0,.1,0,.2ZM90.1,15.2c0,.3.2.5.4.7.2.2.4.4.6.5.2.1.5.2.7.2.3,0,.5,0,.8,0,.3,0,.5-.2.7-.4.2-.2.3-.4.5-.6.1-.2.2-.5.2-.7,0-.3,0-.5,0-.8,0-.3-.2-.5-.4-.7s-.4-.4-.6-.5c-.2-.1-.5-.2-.7-.2-.3,0-.5,0-.8,0-.3,0-.5.2-.7.4-.2.2-.3.4-.5.6-.1.2-.2.5-.2.7,0,.3,0,.5,0,.8Z"/>
    <path class="cls-2" d="M105,14.9l-1.3.2v-.7c-.4.3-.6.5-.9.7s-.6.3-1,.4c-.4,0-.9,0-1.3,0-.4,0-.8-.3-1.1-.5-.3-.2-.6-.5-.9-.9-.2-.4-.4-.8-.5-1.2,0-.5,0-.9,0-1.3,0-.4.3-.8.5-1.2.2-.4.5-.7.9-.9.4-.2.8-.4,1.2-.5.4,0,.7,0,1.1,0,.4,0,.7.2,1,.3l-.3-1.3c0-.2-.1-.3-.3-.4-.1-.1-.3-.1-.5-.1s-.3.1-.4.3l-1.1-.7c.1-.2.3-.4.5-.5.2-.1.5-.2.7-.3.3,0,.5,0,.8,0,.3,0,.5.2.7.3s.4.3.5.5c.1.2.2.5.3.7l1.4,7.2ZM99.2,12.6c0,.3.2.5.3.7.1.2.3.4.5.5.2.1.4.2.7.3.3,0,.5,0,.8,0,.3,0,.5-.1.7-.3.2-.1.4-.3.5-.5.1-.2.2-.4.3-.7,0-.3,0-.5,0-.8,0-.3-.2-.5-.3-.7-.1-.2-.3-.4-.5-.5-.2-.1-.4-.2-.7-.3-.3,0-.5,0-.8,0-.3,0-.5.1-.7.3-.2.1-.4.3-.5.5-.1.2-.2.4-.3.7,0,.3,0,.5,0,.8Z"/>
    <path class="cls-2" d="M105.7,11.4c0-.5,0-.9.2-1.3s.3-.8.6-1.1c.3-.3.6-.6,1-.8.4-.2.8-.3,1.2-.4s.9,0,1.3.2.8.4,1.1.6c.3.3.6.6.8,1,.2.4.3.8.4,1.3,0,.5,0,.9-.2,1.3s-.3.8-.6,1.1c-.3.3-.6.6-1,.8-.4.2-.8.3-1.2.4-.4,0-.9,0-1.3-.2-.4-.1-.8-.4-1.1-.6-.3-.3-.6-.6-.8-1-.2-.4-.3-.8-.4-1.3ZM107,11.3c0,.3,0,.5.2.8.1.2.3.4.5.6.2.2.4.3.6.4.2,0,.5.1.8,0,.3,0,.5,0,.7-.2.2-.1.4-.3.6-.5.2-.2.3-.4.4-.7,0-.3.1-.5,0-.8,0-.3,0-.5-.2-.8-.1-.2-.3-.4-.5-.6-.2-.2-.4-.3-.6-.4-.2,0-.5-.1-.8,0-.3,0-.5,0-.7.2-.2.1-.4.3-.6.5-.2.2-.3.4-.4.7,0,.3-.1.5,0,.8Z"/>
    <path class="cls-2" d="M120,11.1c0-.5.2-.9.4-1.3.2-.4.5-.7.8-1,.3-.3.7-.5,1.1-.6s.8-.2,1.3-.1c.4,0,.9.2,1.2.4s.7.5.9.8c.3.3.4.7.6,1.1.1.4.1.9,0,1.3,0,.5-.2.9-.4,1.3-.2.4-.5.7-.8,1-.3.3-.7.5-1.1.6-.4.1-.8.2-1.3.1-.4,0-.9-.2-1.2-.4s-.7-.5-.9-.8c-.3-.3-.4-.7-.6-1.1-.1-.4-.1-.9,0-1.3ZM121.3,11.2c0,.3,0,.5,0,.8,0,.3.2.5.3.7.1.2.3.4.6.5s.5.2.7.3c.3,0,.5,0,.8,0,.2,0,.5-.2.7-.3s.4-.3.5-.6c.1-.2.2-.5.3-.8,0-.3,0-.5,0-.8,0-.3-.2-.5-.3-.7s-.3-.4-.6-.5c-.2-.1-.5-.2-.7-.3-.3,0-.5,0-.8,0-.2,0-.5.2-.7.3-.2.2-.4.3-.5.6-.1.2-.2.5-.3.8Z"/>
    <path class="cls-2" d="M129.1,15.9l-1.3-.3,1.1-4.5c0-.2,0-.3,0-.5,0-.2-.2-.3-.4-.3-.2,0-.3,0-.5,0l-.7-1.1c.2-.1.4-.2.7-.3.3,0,.5,0,.8,0,.3,0,.6.2.9.5.2.2.4.5.5.8.4-.2.7-.3,1.2-.4.4,0,.8,0,1.3,0,.6.1,1.1.4,1.5.8.4.4.7.9.8,1.4l-1.2.4c-.1-.3-.3-.6-.5-.8-.2-.2-.5-.4-.9-.5-.3,0-.5,0-.8,0-.3,0-.5.1-.7.3-.2.1-.4.3-.6.5-.2.2-.3.5-.3.7l-.8,3.2Z"/>
    <path class="cls-2" d="M141.2,13.4c0,0,0,.1,0,.2,0,0,0,.1,0,.2.3-.2.6-.3.9-.4s.7,0,1,.1c.3,0,.5.2.7.4s.3.4.4.6l-1.2.5c0-.2-.2-.3-.4-.3-.2,0-.3,0-.5,0s-.3.2-.3.3l-1.7,4.4c-.2.4-.4.8-.7,1.1-.3.3-.6.6-1,.7-.4.2-.8.3-1.2.3-.4,0-.9,0-1.3-.2-.6-.2-1-.5-1.4-1-.4-.5-.6-1-.7-1.5l1.3-.2c0,.3.2.6.4.9.2.3.5.5.8.6.3,0,.5.1.8.1s.5,0,.7-.2c.2-.1.4-.3.6-.4.2-.2.3-.4.4-.7l.2-.6c-.3.1-.7.1-1,.1-.4,0-.7,0-1-.2-.4-.2-.8-.4-1.1-.7s-.5-.6-.7-1c-.2-.4-.3-.8-.3-1.2,0-.4,0-.9.2-1.3.2-.4.4-.8.7-1.1.3-.3.6-.6,1-.7.4-.2.8-.3,1.2-.3.4,0,.9,0,1.3.2h0c.3.1.6.3.9.5.3.2.5.5.7.8ZM136.6,14.4c0,.3-.1.5-.1.8,0,.3,0,.5.2.7,0,.2.2.4.4.6.2.2.4.3.7.4.3,0,.5.1.8.1.3,0,.5,0,.7-.2.2-.1.4-.3.6-.4.2-.2.3-.4.4-.7s.1-.5.1-.8c0-.3,0-.5-.2-.7,0-.2-.2-.4-.4-.6s-.4-.3-.7-.4c-.3,0-.5-.1-.8-.1-.3,0-.5,0-.7.2-.2.1-.4.3-.6.4-.2.2-.3.4-.4.7Z"/>
    <path class="cls-2" d="M147.1,22c-.3,0-.7,0-1.1,0s-.7-.2-1-.3h0c-.4-.2-.7-.5-1-.8-.3-.3-.5-.7-.6-1.1-.1-.4-.1-.8-.1-1.3s.2-.9.4-1.3c.2-.4.5-.8.8-1,.3-.3.7-.5,1.1-.6.4-.1.8-.2,1.2-.1.4,0,.8.2,1.2.4.3.2.6.4.8.7.2.3.4.6.6.9l.3-.6,1.1.6-2.2,4.2c0,.2,0,.3,0,.5,0,.2.2.3.3.4.2,0,.3.1.5,0l.4,1.3c-.2,0-.5.1-.7,0-.3,0-.5,0-.7-.2-.3-.2-.6-.4-.7-.7-.2-.3-.3-.6-.3-.9,0,0-.1,0-.2,0,0,0-.1,0-.2,0ZM144.9,17.8c-.1.2-.2.5-.2.8,0,.3,0,.5,0,.8,0,.2.2.5.3.7.2.2.4.4.6.5.2.1.5.2.7.2.3,0,.5,0,.7,0,.2,0,.5-.2.7-.4.2-.2.4-.4.5-.6.1-.2.2-.5.2-.8,0-.3,0-.5,0-.8,0-.2-.2-.5-.3-.7-.2-.2-.4-.4-.6-.5-.2-.1-.5-.2-.7-.2-.3,0-.5,0-.7,0-.2,0-.5.2-.7.4-.2.2-.4.4-.5.6Z"/>
    <path class="cls-2" d="M156.7,25c.1-.2.2-.5.3-.7,0-.3,0-.5,0-.8,0-.2-.1-.5-.3-.7-.1-.2-.3-.4-.5-.6-.2-.2-.5-.3-.7-.3-.3,0-.5,0-.8,0-.3,0-.5.2-.7.3-.2.2-.4.4-.6.6l-1.8,2.7-1.1-.7,2.7-3.9c0-.1.1-.3,0-.5,0-.2-.1-.3-.3-.4-.1-.1-.3-.1-.5-.1l-.2-1.3c.2,0,.5,0,.8,0,.3,0,.5.1.7.3.3.2.5.5.7.8.1.3.2.6.2,1,.2,0,.4,0,.6,0,.2,0,.4,0,.7,0h.2c.1,0,.3.1.4.2.1,0,.3.2.5.3.4.3.7.6.9.9.2.4.4.8.4,1.2,0,.4,0,.8,0,1.3,0,.4-.3.8-.5,1.2l-1.9,2.8-1.1-.7,1.9-2.8Z"/>
    <path class="cls-2" d="M158.8,31.1l-1-.8,3-3.6c.1-.1.2-.3.2-.5,0-.2,0-.3-.2-.4s-.3-.2-.5-.2v-1.3c.1,0,.4,0,.6,0,.3,0,.5.2.7.4s.4.4.5.6c.1.2.2.5.2.7,0,.2,0,.5,0,.8,0,.3-.2.5-.4.7l-3,3.6ZM163.1,23.4c.1-.1.3-.2.5-.2.2,0,.3,0,.5.2.1.1.2.3.2.4,0,.2,0,.3-.2.5-.1.1-.3.2-.5.2-.2,0-.3,0-.5-.2-.1-.1-.2-.3-.2-.4,0-.2,0-.3.2-.5Z"/>
    <path class="cls-2" d="M163,30.4c-.2.2-.3.4-.4.7s-.1.5-.2.7c0,.2,0,.5.1.7,0,.2.2.5.4.7.3.3.5.4.9.5.3,0,.7,0,1,0l.3,1.3c-.5.2-1.1.2-1.6,0-.6-.1-1-.4-1.5-.8-.3-.3-.6-.7-.7-1.1-.2-.4-.2-.8-.2-1.2,0-.4,0-.8.3-1.2s.4-.8.7-1.1c.3-.3.7-.6,1.1-.7.4-.2.8-.3,1.2-.3.4,0,.8,0,1.2.2.4.2.8.4,1.1.7.2.2.3.4.4.7,0,.2.1.5.1.7,0,.2,0,.5-.2.7s-.2.5-.4.7c-.2.2-.4.3-.7.4-.2,0-.5.2-.7.2v-1.3c.2,0,.4,0,.5-.2.1-.1.2-.3.2-.5,0-.2,0-.3-.2-.5-.2-.2-.4-.3-.7-.4-.2,0-.5-.1-.7-.1-.2,0-.5,0-.7.2-.2.1-.5.2-.7.4Z"/>
    <path class="cls-2" d="M167.2,34.7c.4-.3.7-.5,1.2-.6.4-.1.8-.2,1.3-.1.4,0,.8.2,1.2.4.4.2.7.5,1,.8.3.3.5.7.6,1.1.1.4.1.8,0,1.3,0,.4-.2.8-.4,1.2s-.5.7-.8,1c-.4.3-.7.5-1.2.6-.4.1-.8.2-1.3.1-.4,0-.8-.2-1.2-.4s-.7-.5-1-.8c-.3-.3-.5-.7-.6-1.1-.1-.4-.1-.8,0-1.3,0-.4.2-.8.4-1.2.2-.4.5-.7.8-1ZM168,35.7c-.2.2-.4.4-.5.6-.1.2-.2.5-.2.7,0,.2,0,.5,0,.7s.2.5.4.7c.2.2.4.4.6.5.2.1.5.2.7.2.2,0,.5,0,.8,0,.3,0,.5-.2.7-.4.2-.2.4-.4.5-.6.1-.2.2-.5.2-.7,0-.2,0-.5,0-.7,0-.3-.2-.5-.4-.7-.2-.2-.4-.4-.6-.5s-.5-.2-.7-.2c-.2,0-.5,0-.8,0-.3,0-.5.2-.7.4Z"/>
  </g>
  <g>
    <path class="cls-2" d="M62.3,141.3c-.4,0-.8-.2-1.2-.4-.4-.2-.8-.5-1.1-.9-.3-.3-.5-.7-.6-1.1-.1-.4-.2-.8-.2-1.1s0-.7.2-1c.1-.3.3-.6.6-.8.1-.1.3-.2.5-.3.2,0,.4-.1.6-.2.2,0,.4,0,.6,0,.2,0,.4,0,.6,0l1.3.2c0-.4.1-.8.3-1.1.1-.3.3-.5.5-.7.2-.2.4-.3.7-.4.2,0,.5-.1.7,0,.2,0,.5,0,.7.2.2.1.4.3.6.5.2.2.3.4.4.7,0,.2,0,.5,0,.7,0,.2,0,.5-.2.7-.1.2-.3.4-.5.6-.2.2-.4.3-.7.4-.2,0-.5,0-.7,0l-.9-.2-.6,2.3c.4-.1.7-.1,1.1,0,.4,0,.7.3,1,.6.2.2.3.4.4.7s0,.5,0,.7h-1.3c0-.3,0-.4-.1-.6-.1-.1-.3-.2-.4-.2-.2,0-.3,0-.5.2,0,0-.2.1-.3.2-.1,0-.2.1-.3.2l-.6,2.3-.8-1,.2-1.2ZM61,139.2c.2.3.5.5.7.6s.5.2.8.2l.7-3.1-1.5-.3c-.2,0-.4,0-.5,0-.2,0-.3,0-.4.2-.1.1-.2.3-.3.4,0,.2,0,.4,0,.6,0,.2,0,.4.2.6,0,.2.2.4.4.6ZM64.7,136h.7c0,.1.2.1.2.1s.2,0,.2-.1c.1-.1.2-.3.2-.4,0-.2,0-.3-.1-.5-.1-.1-.3-.2-.4-.2-.2,0-.3,0-.5.2,0,0-.1.1-.2.2s0,.2,0,.2v.5Z"/>
    <path class="cls-2" d="M70.8,149.2l1,.8,3.5-4.6h0c0-.2.1-.4.1-.5,0-.2,0-.3-.2-.4-.1-.1-.3-.1-.5-.1l-.2-1.3c.2,0,.5,0,.7,0,.2,0,.5.2.7.3.2.1.3.3.4.5.1.2.2.4.2.6.2,0,.4,0,.7.1.2,0,.5.2.8.5.3.2.5.4.7.7.2.2.3.5.4.7,0,.3,0,.5,0,.8,0,.3-.2.6-.4.8,0,.1-.2.2-.2.3,0,.1-.2.2-.3.3-.1,0-.3.2-.4.3-.2,0-.4.1-.6.2,0,.5,0,.9,0,1.2,0,.3,0,.6-.1.8,0,.2-.2.4-.3.5,0,.1-.2.3-.3.4-.2.3-.5.5-.8.7-.3.2-.6.3-.9.3-.3,0-.6,0-1,0-.3,0-.6-.2-.9-.4l-3-2.3.8-1ZM74.2,151.6c.3,0,.6,0,.8,0,.2,0,.5-.2.6-.4.2-.2.3-.4.4-.7,0-.3,0-.5,0-.8,0-.3-.2-.6-.4-.9-.2-.3-.5-.5-.9-.8l-2,2.6,1,.7c0,0,.2.1.4.2ZM75.6,147.1c.4.2.7.3.9.4.3,0,.5.1.6.1s.3,0,.4,0c0,0,.2-.1.3-.2.1-.2.2-.3.2-.5,0-.2,0-.3-.2-.5,0-.1-.2-.3-.4-.4-.1,0-.3-.2-.4-.2,0,0-.1,0-.2,0s-.1,0-.2.1-.1,0-.2.1c0,0,0,0-.1.1l-.7,1Z"/>
    <path class="cls-2" d="M81.7,157.3c-.3,0-.7,0-1,0-.3,0-.7-.2-1-.3h0c-.4-.2-.7-.5-.9-.8-.2-.3-.4-.7-.5-1.1-.1-.4-.1-.8,0-1.2,0-.4.2-.8.4-1.2.2-.4.5-.7.8-1,.3-.3.7-.5,1.1-.6.4-.1.8-.2,1.2-.1s.8.2,1.2.4c.3.2.6.4.8.7.2.3.4.5.5.9l.3-.6,1.1.6-2.3,4c0,.2,0,.3,0,.5,0,.2.1.3.3.4.2,0,.3.1.5,0l.3,1.2c-.2,0-.5,0-.7,0-.3,0-.5,0-.7-.2-.3-.2-.5-.4-.7-.7-.2-.3-.2-.6-.3-.9,0,0-.1,0-.2,0,0,0-.1,0-.2,0ZM79.7,153.2c-.1.2-.2.5-.2.7,0,.3,0,.5,0,.7,0,.2.2.5.3.7.2.2.3.4.6.5s.5.2.7.2.5,0,.7,0,.4-.2.7-.3c.2-.2.4-.4.5-.6.1-.2.2-.5.2-.7s0-.5,0-.7c0-.2-.2-.5-.3-.7-.2-.2-.3-.4-.6-.5-.2-.1-.5-.2-.7-.2-.3,0-.5,0-.7,0-.2,0-.4.2-.7.3-.2.2-.4.4-.5.6Z"/>
    <path class="cls-2" d="M88,161l-1.2-.5,1.7-4.2c0-.2,0-.3,0-.5,0-.2-.2-.3-.3-.3-.2,0-.3,0-.5,0l-.5-1.2c.2,0,.5-.2.7-.2.3,0,.5,0,.7.1.3.1.6.3.8.6s.3.5.4.9c.4-.2.8-.2,1.2-.2.4,0,.8,0,1.2.2.5.2,1,.5,1.3,1,.3.4.5.9.6,1.5l-1.3.2c0-.3-.2-.6-.4-.9-.2-.3-.5-.5-.8-.6-.2,0-.5-.1-.7-.1s-.5,0-.7.2c-.2,0-.4.2-.6.4s-.3.4-.4.6l-1.2,3Z"/>
    <path class="cls-2" d="M96.2,163.8l-1.2-.3,1.1-4.4c0-.2,0-.3,0-.5,0-.2-.2-.2-.4-.3-.2,0-.3,0-.5,0l-.6-1.1c.2-.1.4-.2.7-.3s.5,0,.8,0c.3,0,.6.2.8.5.2.2.4.5.5.8.3-.2.7-.3,1.1-.4.4,0,.8,0,1.2,0,.6.1,1,.4,1.4.8.4.4.7.9.8,1.4l-1.2.4c0-.3-.3-.6-.5-.8-.2-.2-.5-.4-.8-.5-.3,0-.5,0-.8,0s-.5.1-.7.3c-.2.1-.4.3-.5.5-.2.2-.3.4-.3.7l-.8,3.1Z"/>
    <path class="cls-2" d="M102.6,162c0-.4.2-.9.4-1.2.2-.4.5-.7.8-.9.3-.3.7-.4,1.1-.6.4-.1.8-.1,1.3,0,.4,0,.8.2,1.2.4s.7.5.9.8c.2.3.4.7.5,1.1.1.4.1.8,0,1.3s-.2.9-.4,1.2c-.2.4-.5.7-.8.9-.3.3-.7.4-1.1.6-.4.1-.8.1-1.3,0-.4,0-.8-.2-1.2-.4s-.7-.5-.9-.8-.4-.7-.5-1.1c-.1-.4-.1-.8,0-1.3ZM103.9,162.2c0,.3,0,.5,0,.8s.2.5.3.7c.1.2.3.4.5.5.2.1.5.2.7.3.3,0,.5,0,.8,0,.2,0,.5-.2.6-.3.2-.1.4-.3.5-.6.1-.2.2-.5.2-.7s0-.5,0-.8-.2-.5-.3-.7c-.1-.2-.3-.4-.5-.5-.2-.1-.5-.2-.7-.3-.3,0-.5,0-.8,0-.2,0-.5.2-.6.3-.2.1-.4.3-.5.6-.1.2-.2.5-.2.7Z"/>
    <path class="cls-2" d="M123.3,165.7h-1.3c0,.1,0-.6,0-.6-.3.2-.5.4-.8.6-.3.1-.6.2-1,.3-.4,0-.9,0-1.2-.1-.4-.1-.7-.3-1.1-.6-.3-.3-.6-.6-.8-1-.2-.4-.3-.8-.4-1.2,0-.4,0-.9.1-1.3.1-.4.3-.8.6-1.1.3-.3.6-.6.9-.8s.8-.3,1.2-.4c.4,0,.7,0,1,0,.3,0,.6.2.9.4v-1.3c-.1-.2-.2-.3-.3-.4-.1-.1-.3-.2-.5-.1s-.3,0-.4.2l-1-.8c.2-.2.3-.3.6-.5.2-.1.5-.2.7-.2s.5,0,.8,0c.2,0,.5.2.6.4.2.2.3.4.5.6.1.2.2.5.2.7l.6,7.1ZM118,162.9c0,.3,0,.5.2.7.1.2.3.4.5.6s.4.3.6.4c.2,0,.5.1.8,0,.3,0,.5,0,.7-.2.2-.1.4-.3.6-.5.2-.2.3-.4.4-.6,0-.2.1-.5,0-.8,0-.3,0-.5-.2-.7-.1-.2-.3-.4-.5-.6-.2-.2-.4-.3-.6-.4s-.5-.1-.7,0c-.3,0-.5,0-.7.2s-.4.3-.6.5c-.2.2-.3.4-.4.6,0,.2-.1.5,0,.8Z"/>
    <path class="cls-2" d="M127.8,162.3c-.2,0-.3.1-.4.3,0,.1-.1.3,0,.5s.1.3.3.4c.1,0,.2,0,.4,0,0,0,0,0,.1,0,0,0,0,0,0,0,0,0,0,0,0,0,0,0,0,0,.1,0h.2c0,0,.1,0,.1,0h0c.3-.1.5-.3.8-.5.2-.2.4-.5.4-.8l1.2.5c-.2.5-.5,1-.9,1.4-.4.4-.9.6-1.5.7-.4,0-.8,0-1.3,0-.4,0-.8-.2-1.1-.5-.3-.2-.6-.5-.9-.9-.2-.4-.4-.7-.5-1.2,0-.4,0-.9,0-1.3s.2-.8.5-1.1.5-.6.8-.9c.3-.2.7-.4,1.2-.5.4,0,.8,0,1.3,0,.4,0,.8.2,1.1.5.3.2.6.5.9.9.2.4.4.7.5,1.2,0,.1,0,.2,0,.3,0,.1,0,.2,0,.3l-3.4.7ZM129.7,160.6c-.1-.2-.3-.4-.5-.5-.2-.2-.4-.3-.6-.3h0c-.2,0-.5,0-.7,0h-.1s0,0,0,0c0,0,0,0,0,0h0s-.2,0-.2,0h0c-.4.2-.7.5-.9.9s-.2.8-.2,1.3h0c.1-.1.3-.4.5-.6.2-.2.5-.3.8-.4l2.1-.4Z"/>
    <path class="cls-2" d="M141,153.2c0-.2-.2-.3-.4-.3-.2,0-.3,0-.5,0-.2,0-.3.2-.3.3l-1.2-.5c0-.2.2-.4.4-.6.2-.2.4-.3.6-.4.2-.1.5-.2.7-.2.3,0,.5,0,.7.1s.4.2.6.4c.2.2.3.4.4.6l1.6,3.6c.2.4.3.8.3,1.3,0,.4,0,.8-.2,1.2-.1.4-.4.7-.6,1-.3.3-.6.6-1,.7-.5.2-1.1.3-1.6.2-.6,0-1-.3-1.5-.6l.7-1c.3.2.6.3.9.3.3,0,.7,0,1-.1.2-.1.4-.3.6-.4.2-.2.3-.4.4-.6,0-.2.1-.5.1-.7,0-.3,0-.5-.2-.8l-1.6-3.6Z"/>
    <path class="cls-2" d="M146.7,154.7c.1.2.3.4.5.5.2.1.4.3.7.3.2,0,.5,0,.7,0,.2,0,.5-.1.7-.3.2-.1.4-.3.6-.5s.2-.4.3-.7c0-.2,0-.5,0-.8s-.1-.5-.3-.8l-1.6-2.7,1.1-.7,2.4,3.9c0,.1.2.2.4.2.2,0,.3,0,.5,0,.2,0,.2-.2.3-.4l1.2.3c0,.2-.2.5-.3.7-.1.2-.3.4-.6.5-.3.2-.6.3-.9.3s-.6,0-.9-.2c0,.2-.1.4-.2.6,0,.2-.2.4-.3.5h0c0,0-.1.3-.1.3,0,.1-.2.2-.3.3-.1,0-.2.2-.3.3h0c-.4.3-.8.4-1.2.5-.4,0-.8,0-1.2,0-.4,0-.8-.3-1.1-.5-.3-.2-.6-.6-.9-.9l-1.7-2.8,1.1-.7,1.7,2.8Z"/>
    <path class="cls-2" d="M156.3,144.8c0,0,.1,0,.2,0,0,0,.1,0,.2,0,0-.3,0-.6,0-.9.1-.3.3-.6.6-.8.2-.2.4-.3.7-.4.2,0,.5,0,.7,0v1.3c-.3,0-.4,0-.6.1-.1.1-.2.2-.2.4,0,.2,0,.3.1.4l3,3.6c.3.3.5.7.6,1.1.1.4.2.8.1,1.2,0,.4-.1.8-.3,1.2-.2.4-.4.7-.8,1-.4.4-.9.6-1.5.7-.6,0-1.1,0-1.6-.2l.4-1.2c.3.1.6.1,1,0,.3,0,.6-.2.9-.4.2-.2.4-.4.5-.6.1-.2.2-.5.2-.7,0-.2,0-.5,0-.7,0-.2-.2-.5-.4-.7l-.4-.5c0,.3-.2.6-.4.9-.2.3-.4.6-.7.8-.3.3-.7.5-1.1.6-.4.1-.8.2-1.2.1-.4,0-.8-.2-1.2-.4-.4-.2-.7-.5-1-.8-.3-.3-.5-.7-.6-1.1-.1-.4-.2-.8-.1-1.2,0-.4.1-.8.3-1.2s.4-.7.8-1h0c.3-.2.6-.4.9-.5.3-.1.7-.2,1-.2ZM155,149.2c.2.2.4.4.6.5s.5.2.7.2c.2,0,.5,0,.7,0,.2,0,.5-.2.7-.4.2-.2.4-.4.5-.6.1-.2.2-.5.2-.7s0-.5,0-.7c0-.2-.2-.5-.4-.7-.2-.2-.4-.4-.6-.5-.2-.1-.5-.2-.7-.2-.2,0-.5,0-.7,0-.2,0-.5.2-.7.4-.2.2-.4.4-.5.6-.1.2-.2.5-.2.7,0,.2,0,.5,0,.7,0,.2.2.5.4.7Z"/>
    <path class="cls-2" d="M161.4,143.7c-.3-.3-.6-.7-.8-1-.2-.4-.3-.8-.3-1.2,0-.4,0-.8.2-1.2.1-.4.4-.8.7-1.1.3-.3.6-.6,1-.7.4-.2.8-.3,1.2-.3.4,0,.8,0,1.2.2.4.1.8.4,1.1.7.3.3.6.7.8,1s.3.8.3,1.2c0,.4,0,.8-.2,1.2s-.4.8-.7,1.1c-.3.3-.6.6-1,.7-.4.2-.8.3-1.2.3s-.8,0-1.2-.2c-.4-.1-.8-.4-1.1-.7ZM162.2,142.8c.2.2.4.3.7.4.2,0,.5.1.7.1.2,0,.5,0,.7-.2.2,0,.4-.2.6-.4.2-.2.3-.4.4-.6,0-.2.1-.5.1-.7,0-.2,0-.5-.2-.7-.1-.2-.3-.4-.5-.6s-.4-.3-.7-.4c-.2,0-.5-.1-.7-.1s-.5,0-.7.2c-.2,0-.4.2-.6.4-.2.2-.3.4-.4.6,0,.2-.1.5-.1.7,0,.2,0,.5.2.7.1.2.3.4.5.6Z"/>
    <path class="cls-2" d="M169.8,133c.3-.1.7-.2,1-.1.1,0,.3,0,.4.1,0,0,.1,0,.2,0,0,0,0,0,.1,0s0,0,.1,0h0c0,0,0,0,0,.1,0,0,0,0,0,0,.1.2.3.3.4.5.3.6.2,1.3-.2,1.9l-2.6,3.6-1-.8,2.6-3.6c.1-.1.1-.3.1-.5s-.1-.3-.3-.4c-.1-.1-.3-.1-.5-.1-.2,0-.3.1-.4.2l-1.5,2c-.5.6-1.1.8-1.8.8-.2,0-.4-.1-.6-.2,0,0,0,0-.1,0,0,0,0,0-.1,0h0c0,0,0-.1-.1-.1,0,0,0,0-.1-.1,0,0-.1-.1-.1-.2,0-.1-.2-.2-.2-.4-.2-.3-.2-.7-.2-1,0-.4.2-.7.3-.9l2.6-3.6,1,.8-2.6,3.6c0,.2-.1.3-.1.5,0,.2.1.3.3.4.2.1.3.2.5.1.2,0,.3-.1.4-.3l1.5-2c.2-.3.4-.5.8-.6Z"/>
  </g>
  <g>
    <path class="cls-2" d="M93.9,127.9h3.1c.4,0,.8,0,1.1.2.3.1.6.3.8.5.2.2.5.4.7.7.2.3.3.6.3.9v1.9c0,.2,0,.4-.2.7-.2.3-.3.4-.5.6,0,0,0,0,0,0,0,0,0,0,0,0,.1,0,.2.2.3.3,0,0,.2.2.3.3,0,0,.1.2.2.4,0,.2.1.3.1.4v2.2c0,.3,0,.6-.3.9-.2.3-.4.5-.7.7-.3.2-.6.4-.9.5-.3.1-.6.2-.9.2h-3.2v-11.3ZM96.8,132.5c.2,0,.4,0,.5-.2.2-.1.2-.2.2-.4v-1.8c0,0,0-.1,0-.2,0,0,0-.1-.1-.2-.2-.1-.3-.2-.6-.2-.2,0-.5,0-.7,0v2.9h.7ZM96.8,137.5c.2,0,.4,0,.5-.2.2-.1.2-.2.2-.4v-2.1c0-.1,0-.2-.1-.3,0,0-.1-.1-.2-.2-.1,0-.3-.1-.5-.1h-.6v3.2h.7Z"/>
    <path class="cls-2" d="M100.5,127.9h3c.4,0,.8,0,1.2.2.4.1.7.3.9.5.3.2.5.5.6.7.2.3.2.6.2.9v2.1c0,.5-.2.9-.5,1.3s-.8.7-1.3.8l2.1,4.7h-2.2l-1.8-4.6v4.6h-2.2v-11.3ZM104.2,130.2c0-.2,0-.3-.2-.4-.2-.1-.3-.2-.5-.2h-.8v3.3h.8c.2,0,.4,0,.5-.2.2-.1.2-.3.2-.4v-2.1Z"/>
    <path class="cls-2" d="M111.7,127.9l2.6,11.3h-2.2l-.4-2h-2.3l-.4,2h-2.2l2.6-11.3h2.2ZM111.4,135.5l-.8-3.9-.8,3.9h1.6Z"/>
    <path class="cls-2" d="M114.8,127.9h2.2l2.6,6.7v-6.7h2.2v11.3h-2.2l-2.6-6.7v6.7h-2.2v-11.3Z"/>
    <path class="cls-2" d="M122.6,127.9h3.1c.3,0,.7,0,1,.2.3.1.6.3.9.5.3.2.5.5.7.8s.2.6.2,1v6.6c0,.3,0,.5-.1.8,0,.2-.2.4-.4.6,0,0-.1.1-.1.1h0c0,0,0,0,0,0,0,0,0,0-.1,0-.2.2-.5.3-.8.5-.3.1-.7.2-1.1.2h-3.1v-11.3ZM125.5,137.6c.2,0,.4,0,.5-.2.2-.1.2-.3.2-.4v-6.6c0-.2,0-.4-.2-.5-.1-.1-.3-.2-.6-.2-.2,0-.5,0-.7,0v7.9h.7Z"/>
    <path class="cls-2" d="M132.5,132.9l1.4,1c.4.3.6.5.8.6.2.1.3.3.4.4,0,.1,0,.3,0,.5,0,.2,0,.5,0,.9v.6c0,.3,0,.6-.2.9-.2.3-.4.5-.6.7-.3.2-.6.4-.9.5s-.7.2-1.2.2-.8,0-1.1-.2-.7-.3-.9-.5-.5-.5-.6-.7c-.2-.3-.2-.6-.2-.9v-1.3h2.2v1.3c0,.2,0,.3.2.4.1.1.3.2.5.2s.4,0,.5-.2c.2-.1.2-.3.2-.4,0-.3,0-.6,0-.8s0-.4,0-.5c0-.1,0-.2,0-.3,0,0-.1-.2-.2-.3-.1,0-.3-.2-.5-.3-.2-.1-.4-.3-.7-.5l-.8-.6c-.3-.2-.5-.4-.7-.5s-.3-.2-.4-.4c0-.1-.2-.3-.2-.4,0-.2,0-.4,0-.6v-1.4c0-.3,0-.6.2-.9.2-.3.4-.5.6-.7.3-.2.6-.4.9-.5.4-.1.7-.2,1.1-.2s.8,0,1.2.2c.4.1.7.3.9.5.3.2.5.5.6.7.2.3.2.6.2.9v1.3h-2.2v-1.3c0-.2,0-.3-.2-.4-.2-.1-.3-.2-.5-.2s-.4,0-.5.2c-.1.1-.2.3-.2.4v1.6c0,.2,0,.3,0,.4,0,0,.2.2.3.3.1,0,.4.3.7.5Z"/>
  </g>
  <g>
    <g>
      <path class="cls-1" d="M101.4,40.7c0,.8.2,1.1.9,1.4,6.8,2.8,13.6,5.6,20.4,8.3,1,.4,1.8,0,1.8-1.1,0-2.5,0-4.9,0-7.4,0-.6-.2-1-.8-1.3-.3-.1-.6-.3-1-.4,0,.8,0,1.5,0,2.2,0,.5,0,1.1,0,1.6,0,.5-.2.7-.7.7-1.1,0-1.2,0-1.2-1.1,0-1.3,0-2.6,0-3.8,0-.3,0-.4-.3-.5-.7-.3-1.3-.6-1.9-.9,0,0-.2,0-.4-.1,0,.2,0,.3,0,.4,0,1.2,0,2.3,0,3.5,0,.9-.6,1.5-1.4,1.5-.9,0-1.6-.6-1.6-1.5,0-1.4,0-2.8,0-4.2,0-.4,0-.4-.4-.4-.9,0-1.8,0-2.7,0-1.3,0-2.4-.6-3.3-1.5-.1-.1-.2-.2-.4-.4,0,.5,0,.8,0,1.2,0,.4,0,.8,0,1.2,0,.9-.6,1.5-1.5,1.5-.9,0-1.5-.6-1.5-1.5,0-1.7,0-3.3,0-5,0-.3,0-.5-.4-.6-.4-.1-.7-.3-1.1-.5,0,.2,0,.3,0,.4,0,1.3,0,2.6,0,3.9,0,.6-.2.8-.8.8-1,0-1.1,0-1.1-1,0-1.3,0-2.6,0-3.9,0-.1,0-.3,0-.4-.4.2-.5.4-.6.8,0,.2,0,.4,0,.6,0,2.6,0,5.2,0,7.9ZM118.7,47.4c0-.4.3-.7.7-.7s.7.3.7.7-.3.7-.7.7-.7-.3-.7-.7ZM112.8,44.5c0-.4.3-.7.7-.7s.7.3.7.7-.3.7-.7.7-.7-.3-.7-.7ZM108.2,40.2c0-1.1.9-2,2-2s2,.9,2,2-.9,2-2,2-2-.9-2-2ZM102.8,40.5c0-.6.5-1,1-1s1,.5,1,1-.5,1-1,1-1-.5-1-1Z"/>
      <path class="cls-4" d="M99.4,30.3c0,3.7,0,7.4,0,11.1,0,1.3.6,2.1,1.8,2.5,7.2,2.8,14.4,5.7,21.6,8.5,1.9.7,3.6-.4,3.6-2.3,0-3,.2-6,.2-9.1,0-.5,0-1-.3-1.5-2.2-4.7-4.4-9.4-6.7-14.1-.6-1.2-1.7-1.8-3.1-1.5-1,.2-2,.5-3,.7-.1,0-.3,0-.4,0l.5.9c2.3-.3,2.9,2,2.9,2,.5.6.3,1.8-.3,2.6-.8,1-2.2,1.3-3.3.8-.9-.3-1.6-1.2-1.5-1.9,0,0-1-2.4,2-3.5l-.6-.7c-.4,0-.8.2-1.1.3-3.4.8-6.8,1.6-10.3,2.5-1.4.3-2.1,1.2-2.1,2.6ZM101.4,40.7c0-2.6,0-5.2,0-7.9,0-.2,0-.4,0-.6,0-.3.2-.6.6-.8,0,.2,0,.3,0,.4,0,1.3,0,2.6,0,3.9,0,.9,0,1,1.1,1,.6,0,.8-.2.8-.8,0-1.3,0-2.6,0-3.9,0-.1,0-.2,0-.4.4.2.8.4,1.1.5.3.1.4.3.4.6,0,1.7,0,3.3,0,5,0,.9.6,1.5,1.5,1.5.8,0,1.5-.6,1.5-1.5,0-.4,0-.8,0-1.2,0-.4,0-.7,0-1.2.2.2.3.3.4.4.9.9,2,1.5,3.3,1.5.9,0,1.8,0,2.7,0,.4,0,.4,0,.4.4,0,1.4,0,2.8,0,4.2,0,.9.7,1.5,1.6,1.5.8,0,1.4-.7,1.4-1.5,0-1.2,0-2.3,0-3.5,0-.1,0-.2,0-.4.2,0,.3,0,.4.1.6.3,1.3.6,1.9.9.2.1.3.2.3.5,0,1.3,0,2.6,0,3.8,0,1,0,1.1,1.2,1.1.5,0,.7-.2.7-.7,0-.5,0-1.1,0-1.6,0-.7,0-1.4,0-2.2.4.2.7.3,1,.4.6.2.8.6.8,1.3,0,2.5,0,4.9,0,7.4,0,1-.8,1.5-1.8,1.1-6.8-2.8-13.6-5.6-20.4-8.3-.7-.3-.9-.6-.9-1.4Z"/>
    </g>
    <path class="cls-3" d="M111.5,29.2c.8,1.2,1.9,1.7,3.3,1.3,1.4-.4,2-1.5,2-2.9,0,0-.6-2.3-2.9-2,0,0-.6-.9-.7-1.1-.5-.7-1.2-1.3-2-1.8-.4-.2-1.8-.8-2.5-.7s-.5.2-.6.2c2.1,0,3.5,1.2,4.3,1.9.4.4,1.2,1.5,1.2,1.5-3.1,1-2,3.5-2,3.5ZM115.4,26.7s0,0,0-.1c0,0,0-.1,0-.2,0,0,.2,0,.3,0,0,0,0,0,0,0,0,0,0,0,.1,0,0,0,0,0,0,0,0,0,.1,0,.2.2,0,0,0,0,.1.1,0,.1.2.3.2.5,0,0,0,.1,0,.2,0,.3,0,.5-.2.8,0,0-.1.2-.3.3,0-.4-.2-.8-.3-1.1,0-.3-.1-.5-.2-.8Z"/>
  </g>
</svg>