<?xml version="1.0" encoding="utf-8"?>
<!-- Generator: Adobe Illustrator 28.4.1, SVG Export Plug-In . SVG Version: 6.00 Build 0)  -->
<svg version="1.0" id="Layer_1" xmlns="http://www.w3.org/2000/svg" xmlns:xlink="http://www.w3.org/1999/xlink" x="0px" y="0px"
	 viewBox="0 0 229 83" style="enable-background:new 0 0 229 83;" xml:space="preserve">
<style type="text/css">
	.st0{fill:#FFFFFF;}
</style>
<g>
	<path class="st0" d="M53.2,1.6l11.6,59.9h-9.7L53.4,51H43.3l-1.7,10.5h-9.5L43.6,1.6C43.6,1.6,53.2,1.6,53.2,1.6z M51.8,41.8
		l-3.5-20.5l-3.5,20.5H51.8z"/>
	<path class="st0" d="M60.8,10.7V1.6h27.4v9.1h-8.9v50.8h-9.7V10.7h-8.9H60.8z"/>
	<path class="st0" d="M91.4,13.3c0-0.9,0.2-1.8,0.5-2.7s0.6-1.7,0.9-2.3c1.1-2.2,2.7-3.8,4.8-5c2.1-1.2,4.3-1.7,6.6-1.8
		c2.3,0,4.6,0.5,6.7,1.7c2.2,1.2,3.9,2.9,5.2,5.4c0.4,0.6,0.7,1.4,1,2.3c0.3,0.9,0.4,1.9,0.4,2.9v24c0,2.2-0.6,4.2-1.7,5.9
		c-1.2,1.7-2.4,3-3.8,4c-0.7,0.5-1.4,0.9-2.1,1.2s-1.3,0.5-2,0.7s-1.4,0.3-2.1,0.3s-1.5,0-2.3,0s-2.1-0.2-3.1-0.5
		c-1-0.4-2-0.8-3-1.5c-1-0.6-1.8-1.4-2.6-2.3c-0.8-0.9-1.4-1.8-1.9-2.7c-0.3-0.5-0.5-1.2-0.8-2.1c-0.3-0.9-0.4-1.8-0.4-2.7V13.3
		H91.4z M104.4,40.8c0.8,0,1.6-0.3,2.3-0.9c0.7-0.6,1-1.4,1-2.5V13.7c0-0.8-0.2-1.4-0.6-1.9s-0.9-0.9-1.5-1.1
		c-0.6-0.2-1.2-0.2-1.9,0c-0.6,0.1-1.2,0.4-1.7,0.9c-0.2,0.3-0.4,0.5-0.6,0.9c-0.2,0.3-0.3,0.7-0.3,1.2v24.2c0,1,0.3,1.7,1,2.3
		c0.7,0.5,1.5,0.8,2.3,0.8L104.4,40.8z"/>
	<path class="st0" d="M129.9,52.3h14.4v9.1h-24V1.6h9.6v50.8V52.3z"/>
	<path class="st0" d="M155.8,20.8l5.8-19.4h9.7l-10.6,35.5v24.5h-9.6V36.9L140.4,1.5h9.7l5.7,19.4L155.8,20.8z"/>
	<path class="st0" d="M182.7,1.6H197v9.1h-14.3v16.2h10.5v9.2h-10.5v16.2H197v9.1h-24V1.6H182.7z"/>
	<rect x="91.4" y="53.5" class="st0" width="26" height="8.5"/>
</g>
<g>
	<path class="st0" d="M94.2,70.4h3c0.4,0,0.7,0,1.1,0.2c0.3,0.1,0.6,0.3,0.8,0.4c0.2,0.2,0.5,0.4,0.6,0.7c0.2,0.3,0.3,0.6,0.3,0.9
		v1.9c0,0.2,0,0.4-0.2,0.7c-0.1,0.2-0.3,0.4-0.5,0.6l0,0l0,0c0.1,0,0.2,0.2,0.3,0.2c0,0,0.2,0.2,0.2,0.3c0,0,0.1,0.2,0.2,0.4
		c0,0.2,0.1,0.3,0.1,0.4v2.2c0,0.3,0,0.6-0.2,0.9s-0.4,0.5-0.6,0.7c-0.3,0.2-0.6,0.4-0.9,0.5s-0.6,0.2-0.9,0.2h-3.2V70.5L94.2,70.4z
		 M97.1,74.9c0.2,0,0.4,0,0.5-0.2c0.2-0.1,0.2-0.2,0.2-0.4v-1.7c0,0,0-0.1,0-0.2c0,0,0-0.1-0.1-0.2c-0.2-0.1-0.3-0.2-0.6-0.2
		c-0.2,0-0.4,0-0.7,0v2.8h0.7V74.9z M97.1,79.8c0.2,0,0.4,0,0.5-0.2c0.2-0.1,0.2-0.2,0.2-0.4v-2.1c0-0.1,0-0.2-0.1-0.3
		c0,0-0.1-0.1-0.2-0.2c-0.1,0-0.3-0.1-0.5-0.1h-0.6v3.2h0.7V79.8z"/>
	<path class="st0" d="M100.7,70.4h2.9c0.4,0,0.8,0,1.1,0.2c0.4,0.1,0.7,0.3,0.9,0.5c0.3,0.2,0.5,0.4,0.6,0.7
		c0.2,0.3,0.2,0.6,0.2,0.9v2.1c0,0.5-0.2,0.9-0.5,1.3s-0.8,0.7-1.3,0.8l2.1,4.7h-2.2l-1.8-4.5v4.5h-2.2V70.5L100.7,70.4z
		 M104.3,72.7c0-0.2,0-0.3-0.2-0.4c-0.1-0.1-0.3-0.2-0.5-0.2h-0.7v3.2h0.7c0.2,0,0.4,0,0.5-0.2c0.1-0.1,0.2-0.3,0.2-0.4v-2.1V72.7z"
		/>
	<path class="st0" d="M111.7,70.4l2.6,11.1h-2.2l-0.4-1.9h-2.3l-0.4,1.9h-2.1l2.6-11.1C109.5,70.4,111.7,70.4,111.7,70.4z
		 M111.4,77.9l-0.8-3.8l-0.8,3.8C109.8,77.9,111.4,77.9,111.4,77.9z"/>
	<path class="st0" d="M114.8,70.4h2.2l2.5,6.6v-6.6h2.2v11.1h-2.2l-2.5-6.6v6.6h-2.2V70.4z"/>
	<path class="st0" d="M122.4,70.4h3c0.3,0,0.7,0,1,0.2c0.3,0.1,0.6,0.3,0.9,0.5s0.5,0.5,0.6,0.7s0.2,0.6,0.2,0.9v6.5
		c0,0.3,0,0.5-0.1,0.8c0,0.2-0.2,0.4-0.4,0.6l-0.1,0.1l0,0l0,0c0,0,0,0-0.1,0c-0.2,0.2-0.5,0.3-0.8,0.5c-0.3,0.1-0.7,0.2-1.1,0.2
		h-3.1V70.3V70.4z M125.4,79.9c0.2,0,0.4,0,0.5-0.2c0.1-0.1,0.2-0.3,0.2-0.4v-6.5c0-0.2,0-0.4-0.2-0.5c-0.1-0.1-0.3-0.2-0.6-0.2
		c-0.2,0-0.5,0-0.7,0v7.8h0.7L125.4,79.9z"/>
	<path class="st0" d="M132.2,75.3l1.4,1c0.4,0.3,0.6,0.5,0.8,0.6s0.3,0.3,0.3,0.4s0,0.3,0,0.5s0,0.5,0,0.9v0.6c0,0.3,0,0.6-0.2,0.9
		s-0.4,0.5-0.6,0.7c-0.3,0.2-0.6,0.4-0.9,0.5s-0.7,0.2-1.1,0.2s-0.8,0-1.1-0.2s-0.7-0.3-0.9-0.5s-0.5-0.5-0.6-0.7
		c-0.2-0.3-0.2-0.6-0.2-0.9V78h2.2v1.3c0,0.2,0,0.3,0.2,0.4c0.1,0.1,0.3,0.2,0.5,0.2s0.4,0,0.5-0.2c0.1-0.1,0.2-0.3,0.2-0.4
		c0-0.3,0-0.6,0-0.8s0-0.4,0-0.5s0-0.2,0-0.3c0,0-0.1-0.2-0.2-0.3c-0.1,0-0.3-0.2-0.4-0.3c-0.2-0.1-0.4-0.3-0.7-0.5l-0.8-0.6
		c-0.3-0.2-0.5-0.4-0.7-0.5s-0.3-0.2-0.4-0.4c0-0.1-0.2-0.3-0.2-0.4s0-0.4,0-0.6v-1.4c0-0.3,0-0.6,0.2-0.9s0.4-0.5,0.6-0.7
		c0.3-0.2,0.6-0.4,0.9-0.5c0.4-0.1,0.7-0.2,1.1-0.2s0.8,0,1.1,0.2c0.4,0.1,0.7,0.3,0.9,0.5c0.3,0.2,0.5,0.4,0.6,0.7
		c0.2,0.3,0.2,0.6,0.2,0.9V74h-2.2v-1.3c0-0.2,0-0.3-0.2-0.4c-0.1-0.1-0.3-0.2-0.5-0.2s-0.4,0-0.5,0.2c-0.1,0.1-0.2,0.3-0.2,0.4v1.5
		c0,0.1,0,0.3,0,0.4c0,0,0.2,0.2,0.3,0.3c0.1,0,0.4,0.2,0.7,0.5L132.2,75.3z"/>
</g>
</svg>
