<?xml version="1.0" encoding="UTF-8"?>
<svg width="210" height="210" fill="none" id="Layer_1" data-name="Layer 1" xmlns="http://www.w3.org/2000/svg" version="1.1" viewBox="0 0 198.12 197.56">
  <defs>
    <style>
      .cls-1 {
        fill: #fff;
        stroke-width: 0px;
      }
    </style>
  </defs>
  <path class="cls-1" d="M18.98,66.37l-9.54-10.26.82-1.68,14.11.94-.87,1.77-4.23-.37-2.4,4.91,2.93,3.03-.81,1.65h-.01ZM15.81,60.62l1.95-3.98-3.85-.37c-1.17-.11-2.12-.23-2.85-.36.68.52,1.33,1.1,1.93,1.73l2.82,2.98Z"/>
  <path class="cls-1" d="M26.25,49.99l1.32.56c-.16.43-.34.8-.53,1.1-.31.49-.63.82-.96,1-.33.17-.65.23-.98.18-.32-.05-.89-.33-1.71-.85l-4.6-2.92-.63.99-1.06-.67.63-.99-1.98-1.26.04-1.87,2.8,1.77.87-1.36,1.05.67-.87,1.36,4.68,2.97c.39.25.65.38.79.4s.28,0,.41-.07.26-.2.39-.4c.1-.15.2-.36.33-.63v.02Z"/>
  <path class="cls-1" d="M24.71,46.26c-1.38-1.08-2.1-2.27-2.17-3.56-.05-1.07.29-2.07,1.01-3,.8-1.03,1.8-1.6,2.98-1.73,1.18-.12,2.37.28,3.55,1.2.96.75,1.6,1.49,1.93,2.21.33.72.42,1.47.3,2.26-.13.79-.44,1.51-.95,2.16-.82,1.04-1.81,1.63-2.99,1.75s-2.39-.31-3.65-1.3h0ZM25.73,44.96c.96.75,1.83,1.1,2.64,1.06.8-.04,1.45-.38,1.95-1.02.49-.63.66-1.34.51-2.13s-.72-1.57-1.7-2.34c-.92-.72-1.79-1.06-2.59-1.01-.8.05-1.45.38-1.94,1.01-.5.63-.67,1.34-.52,2.13s.7,1.56,1.65,2.3Z"/>
  <path class="cls-1" d="M35.85,40.19l-9.51-8.99,1.1-1.17,9.51,8.99-1.1,1.17Z"/>
  <path class="cls-1" d="M41.69,39.35l-1.14-1.01c.33-.16.59-.33.78-.5.27-.24.44-.47.52-.7s.1-.47.06-.72c-.03-.19-.17-.59-.43-1.22-.04-.09-.09-.22-.15-.39l-9-4.71,1.29-1.15,5.12,2.79c.65.35,1.31.75,1.97,1.18-.35-.67-.67-1.36-.94-2.05l-2.16-5.47,1.2-1.07,3.71,9.6c.4,1.03.65,1.77.76,2.21.14.59.15,1.09.04,1.52s-.36.81-.74,1.15c-.23.21-.53.39-.9.54h.01Z"/>
  <path class="cls-1" d="M50.46,23.88l1.48-.78c.34.95.37,1.84.09,2.68-.28.84-.87,1.58-1.77,2.21-1.14.79-2.29,1.06-3.44.82-1.15-.24-2.17-.99-3.05-2.26-.91-1.31-1.27-2.56-1.1-3.75.17-1.19.8-2.16,1.87-2.9,1.04-.72,2.14-.96,3.29-.71s2.17,1.02,3.06,2.31c.05.08.13.2.24.36l-5.81,4.02c.64.82,1.34,1.31,2.09,1.46.75.15,1.45,0,2.1-.45.48-.34.81-.75.98-1.24s.16-1.09-.03-1.78h0ZM44.65,24.75l4.35-3.01c-.51-.61-1.02-.99-1.52-1.13-.77-.22-1.49-.09-2.16.37-.61.42-.98.98-1.11,1.67s.02,1.39.44,2.1Z"/>
  <path class="cls-1" d="M61.43,21.07l-5.05-12.07,4.53-1.89c.92-.39,1.71-.57,2.37-.56s1.25.21,1.78.58c.53.38.91.84,1.14,1.4.22.52.28,1.06.19,1.63s-.36,1.12-.81,1.63c.82-.09,1.53.04,2.14.39.61.35,1.06.88,1.35,1.58.24.57.34,1.14.3,1.73-.04.59-.17,1.08-.42,1.49-.24.41-.6.79-1.07,1.15s-1.09.69-1.86,1.02l-4.6,1.92h0ZM60.11,13.4l2.61-1.09c.71-.3,1.2-.55,1.46-.78.36-.29.58-.62.67-.98.09-.37.04-.76-.13-1.18-.17-.4-.41-.71-.73-.94-.32-.22-.68-.32-1.08-.28s-1.04.24-1.91.6l-2.41,1.01,1.52,3.65h0ZM62.44,18.98l3.01-1.26c.52-.22.87-.39,1.06-.51.34-.22.6-.46.78-.71.18-.26.29-.57.33-.93s-.03-.73-.19-1.12c-.19-.45-.47-.79-.84-1.03-.37-.24-.79-.34-1.25-.3-.47.04-1.08.22-1.85.54l-2.79,1.17,1.73,4.15h0Z"/>
  <path class="cls-1" d="M73.45,16.45l-2.61-9.11,1.39-.4.4,1.38c.17-.75.38-1.27.62-1.56s.54-.49.9-.59c.52-.15,1.1-.13,1.73.04l-.12,1.58c-.44-.11-.85-.12-1.23-.01-.34.1-.61.29-.82.57s-.32.62-.33,1.01c-.01.6.07,1.22.26,1.88l1.37,4.77-1.54.44h-.02Z"/>
  <path class="cls-1" d="M86.05,12.37c-.5.6-1,1.05-1.51,1.35-.51.3-1.07.51-1.69.61-1.03.18-1.86.07-2.5-.34-.64-.4-1.03-1-1.16-1.78-.08-.46-.05-.89.09-1.31s.36-.77.66-1.05c.3-.29.65-.53,1.05-.72.3-.14.75-.3,1.36-.48,1.25-.38,2.16-.72,2.73-1.04-.03-.22-.05-.36-.06-.41-.11-.64-.34-1.07-.69-1.28-.47-.29-1.1-.36-1.9-.22-.74.13-1.27.36-1.58.68s-.49.83-.54,1.52l-1.58.06c.02-.69.16-1.26.41-1.73.25-.46.66-.86,1.23-1.19.57-.33,1.26-.56,2.06-.7.8-.14,1.46-.16,1.99-.06.53.1.94.27,1.22.51s.51.57.68.99c.1.26.21.74.34,1.45l.37,2.11c.26,1.47.46,2.4.59,2.77.14.38.33.73.6,1.05l-1.65.29c-.22-.3-.4-.66-.52-1.1v.02ZM85.29,8.86c-.53.34-1.36.69-2.48,1.05-.63.21-1.08.39-1.32.56s-.43.37-.53.62c-.11.25-.14.52-.09.79.07.42.3.75.66.97.37.23.86.28,1.48.18.61-.11,1.13-.34,1.56-.69s.71-.78.85-1.28c.11-.39.1-.93-.02-1.63l-.1-.58h-.01Z"/>
  <path class="cls-1" d="M91.02,12.89l-.44-9.47,1.44-.07.06,1.35c.65-1.07,1.63-1.64,2.94-1.7.57-.03,1.1.05,1.59.23.49.18.86.44,1.11.76.25.32.44.71.55,1.16.07.29.13.81.16,1.56l.27,5.82-1.6.07-.27-5.76c-.03-.65-.12-1.14-.26-1.46s-.37-.57-.7-.74c-.33-.18-.7-.26-1.13-.24-.68.03-1.26.28-1.74.73-.48.46-.69,1.29-.63,2.5l.24,5.17-1.6.08h0Z"/>
  <path class="cls-1" d="M108.09,13.06l.09-1.19c-.67.89-1.59,1.29-2.75,1.2-.75-.06-1.43-.32-2.03-.79-.6-.47-1.04-1.08-1.33-1.86-.29-.77-.39-1.64-.32-2.61.07-.94.3-1.79.67-2.53.37-.74.89-1.29,1.55-1.65s1.38-.51,2.16-.45c.57.04,1.07.21,1.49.48.43.28.76.62,1.01,1.02l.37-4.68,1.59.13-1.03,13.04-1.49-.12h.02ZM103.4,7.95c-.1,1.21.09,2.13.55,2.77.46.64,1.04.99,1.74,1.04.7.06,1.32-.18,1.85-.72.53-.53.85-1.39.94-2.56.1-1.29-.07-2.26-.52-2.91-.45-.64-1.04-1-1.77-1.05-.71-.06-1.33.19-1.85.73-.52.54-.83,1.44-.93,2.69h-.01Z"/>
  <path class="cls-1" d="M112.85,10.77l1.61.07c-.04.64.11,1.17.44,1.58s.86.69,1.57.84c.72.15,1.29.11,1.7-.11.41-.22.65-.53.74-.93.07-.36-.03-.67-.29-.93-.19-.18-.69-.47-1.5-.86-1.1-.53-1.84-.94-2.25-1.24-.4-.3-.68-.67-.83-1.09s-.18-.86-.09-1.32c.08-.41.26-.78.52-1.09.26-.31.58-.55.95-.72.28-.13.65-.22,1.09-.26.45-.04.91,0,1.4.09.73.15,1.35.38,1.86.71.51.32.86.69,1.05,1.1.19.41.27.93.25,1.55l-1.58-.1c.03-.49-.1-.91-.38-1.24s-.73-.57-1.34-.69c-.72-.15-1.26-.13-1.62.04-.36.18-.57.42-.63.75-.04.2-.01.4.08.59.09.2.27.38.52.54.15.09.58.32,1.31.69,1.05.52,1.78.93,2.18,1.2.4.28.69.62.87,1.04.18.41.21.89.1,1.42-.11.52-.36.99-.76,1.39s-.92.67-1.54.81-1.31.13-2.04-.02c-1.21-.25-2.08-.68-2.61-1.31s-.78-1.46-.76-2.48l-.02-.02Z"/>
  <path class="cls-1" d="M129.27,13.89l.59-1.51,4.6,1.79-.59,1.51s-4.6-1.79-4.6-1.79Z"/>
  <path class="cls-1" d="M140.53,23.13l6.99-11.06,1.46.92-2.87,4.54,5.75,3.63,2.87-4.54,1.46.93-6.99,11.06-1.46-.93,3.3-5.21-5.75-3.63-3.3,5.21s-1.46-.92-1.46-.92Z"/>
  <path class="cls-1" d="M157.38,33.87c-.78,0-1.45-.1-2-.3s-1.07-.5-1.55-.91c-.79-.68-1.23-1.39-1.33-2.14-.09-.75.12-1.43.63-2.03.3-.35.66-.61,1.07-.76.41-.15.82-.21,1.23-.16.41.05.82.16,1.22.35.29.14.71.39,1.24.75,1.09.73,1.93,1.21,2.54,1.44.15-.16.24-.27.28-.31.43-.5.61-.95.55-1.35-.08-.54-.42-1.08-1.04-1.6-.57-.49-1.08-.75-1.53-.79-.45-.03-.95.15-1.52.55l-1.05-1.18c.55-.42,1.08-.68,1.59-.78.52-.1,1.08-.04,1.7.2s1.23.61,1.85,1.14c.61.53,1.05,1.03,1.31,1.5s.39.9.38,1.27-.12.76-.33,1.16c-.14.24-.44.64-.9,1.18l-1.39,1.63c-.97,1.13-1.56,1.87-1.76,2.22-.21.35-.35.72-.43,1.13l-1.27-1.09c.09-.36.26-.73.52-1.1v-.02ZM159.61,31.05c-.6-.2-1.39-.61-2.39-1.25-.56-.36-.99-.58-1.27-.67-.29-.09-.56-.09-.82-.02-.26.08-.48.22-.67.44-.28.33-.39.7-.33,1.13s.33.84.8,1.25c.47.4.98.66,1.52.77.54.11,1.05.06,1.53-.15.37-.16.78-.51,1.24-1.05l.38-.45h0Z"/>
  <path class="cls-1" d="M160.11,38.04l9.64-8.84,1.09,1.18-5.5,5.04,5.41.2,1.41,1.53-5.04-.29-1.7,6.97-1.34-1.46,1.45-5.58-1.57-.1-2.77,2.54-1.09-1.18h0Z"/>
  <path class="cls-1" d="M166.72,45.52l10.6-7.67.94,1.3-6.04,4.38,5.35.82,1.22,1.68-4.97-.87-2.49,6.73-1.16-1.6,2.09-5.38-1.55-.28-3.04,2.2-.94-1.3h-.01Z"/>
  <path class="cls-1" d="M172.69,54.28l8.16-4.82.82,1.38-8.16,4.82-.82-1.38Z"/>
  <path class="cls-1" d="M175.5,58.81l8.71-3.74.57,1.32-1.22.52c.54.09,1.04.31,1.5.65.45.34.81.8,1.06,1.38.28.65.37,1.23.28,1.76s-.34.98-.75,1.36c1.31.25,2.21.93,2.68,2.03.37.86.42,1.63.14,2.3-.28.67-.92,1.22-1.91,1.65l-5.98,2.57-.63-1.47,5.49-2.36c.59-.25.99-.48,1.21-.69s.35-.47.4-.79c.05-.32,0-.65-.14-.99-.26-.61-.69-1.03-1.27-1.26s-1.32-.15-2.22.23l-5.06,2.17-.63-1.48,5.66-2.43c.66-.28,1.1-.61,1.32-1s.22-.85-.02-1.39c-.18-.42-.45-.75-.82-1.01s-.8-.38-1.29-.35c-.49.02-1.13.2-1.92.54l-4.52,1.94-.63-1.48v.02Z"/>
  <path class="cls-1" d="M181.49,74.28l9.12-2.6.44,1.54-9.12,2.6-.44-1.54Z"/>
  <path class="cls-1" d="M182.76,78.67l1.28-.24,7.91,4.67c-.16-.67-.29-1.26-.38-1.77l-.71-3.8,1.28-.24,1.42,7.62-1.04.19-6.85-3.95-1.26-.77c.18.7.33,1.36.45,1.98l.8,4.31-1.36.25-1.53-8.25h0Z"/>
  <path class="cls-1" d="M184.96,95.48l1.19-.07c-.98-.54-1.5-1.39-1.57-2.56-.05-.75.12-1.46.49-2.12.38-.66.93-1.18,1.65-1.58.72-.39,1.57-.62,2.54-.68.94-.06,1.81.04,2.6.31s1.41.7,1.86,1.31c.45.6.7,1.29.75,2.07.04.57-.05,1.09-.27,1.55-.21.46-.5.84-.87,1.15l4.69-.29.1,1.59-13.06.81-.09-1.49h-.01ZM189.36,90.11c-1.21.08-2.1.39-2.67.93-.57.55-.83,1.17-.79,1.86.04.7.37,1.28.97,1.73.6.45,1.49.64,2.67.57,1.29-.08,2.23-.39,2.8-.93s.84-1.17.79-1.9c-.04-.71-.37-1.29-.98-1.73s-1.54-.62-2.8-.55v.02Z"/>
  <path class="cls-1" d="M185.83,106.53c-.47-.63-.79-1.22-.96-1.78-.17-.56-.24-1.16-.2-1.79.07-1.04.37-1.82.91-2.35.54-.53,1.21-.76,2-.71.46.03.88.16,1.25.4s.66.53.87.89.36.75.45,1.19c.06.32.11.8.15,1.44.07,1.3.2,2.27.37,2.89.22.02.36.03.42.04.65.04,1.12-.08,1.41-.37.39-.39.61-.98.66-1.79.05-.75-.05-1.32-.29-1.7-.24-.38-.69-.67-1.35-.89l.31-1.55c.66.19,1.19.45,1.58.81.39.35.68.84.86,1.48.18.63.25,1.35.2,2.17-.05.81-.19,1.46-.41,1.95s-.48.85-.79,1.07c-.3.22-.68.36-1.12.43-.28.04-.77.03-1.48-.01l-2.14-.14c-1.49-.09-2.44-.12-2.83-.08-.4.04-.79.15-1.16.33l.11-1.67c.34-.14.74-.23,1.19-.25h0ZM189.42,106.62c-.2-.6-.35-1.48-.44-2.66-.05-.67-.13-1.14-.23-1.42-.1-.28-.26-.5-.48-.67s-.47-.25-.75-.27c-.43-.03-.79.11-1.1.42-.31.3-.48.77-.52,1.39-.04.62.06,1.17.3,1.67s.59.88,1.04,1.13c.35.19.88.31,1.59.36l.59.04h0Z"/>
  <path class="cls-1" d="M186.95,117.56l1.57.38-1.17,4.8-1.57-.38s1.17-4.8,1.17-4.8Z"/>
  <path class="cls-1" d="M180.2,127.66l9.95,9.87-.75,1.71-14.13-.37.79-1.8,4.24.2,2.21-5.01-3.05-2.91.74-1.68h0ZM183.59,133.28l-1.79,4.06,3.87.21c1.17.06,2.13.14,2.86.24-.7-.49-1.37-1.04-2-1.65l-2.93-2.86h-.01Z"/>
  <path class="cls-1" d="M173.58,144.33l-1.34-.51c.14-.44.31-.81.49-1.12.29-.5.6-.85.92-1.03.32-.19.64-.26.97-.22s.91.3,1.74.78l4.72,2.74.59-1.02,1.08.63-.59,1.02,2.03,1.18.03,1.87-2.86-1.66-.81,1.4-1.08-.63.81-1.4-4.79-2.78c-.4-.23-.67-.35-.81-.37-.14-.02-.28,0-.41.08-.13.07-.26.21-.38.42-.09.15-.19.37-.3.64v-.02Z"/>
  <path class="cls-1" d="M175.26,148.01c1.42,1.03,2.19,2.18,2.31,3.47.09,1.07-.2,2.08-.89,3.03-.76,1.06-1.73,1.67-2.91,1.84s-2.38-.18-3.6-1.06c-.99-.71-1.66-1.42-2.01-2.13-.35-.71-.48-1.46-.39-2.25s.38-1.53.87-2.2c.78-1.08,1.75-1.7,2.92-1.86,1.17-.17,2.4.22,3.7,1.16h0ZM174.29,149.35c-.98-.71-1.88-1.03-2.68-.95-.8.08-1.43.44-1.9,1.09s-.61,1.36-.43,2.15.78,1.54,1.79,2.27c.95.69,1.83.99,2.63.91s1.43-.44,1.9-1.08c.47-.65.62-1.37.44-2.15s-.76-1.53-1.74-2.24h-.01Z"/>
  <path class="cls-1" d="M164.39,154.49l9.86,8.6-1.06,1.21-9.86-8.6,1.06-1.21Z"/>
  <path class="cls-1" d="M158.57,155.58l1.17.96c-.32.18-.57.35-.76.54-.26.25-.42.49-.49.72s-.08.48-.03.73c.04.19.2.59.48,1.2.04.08.1.21.17.38l9.18,4.34-1.25,1.2-5.23-2.58c-.67-.32-1.34-.69-2.02-1.11.38.66.72,1.33,1.02,2.01l2.37,5.38-1.16,1.11-4.09-9.44c-.44-1.02-.72-1.74-.84-2.17-.16-.58-.19-1.09-.1-1.52.09-.43.33-.83.69-1.18.22-.21.52-.41.88-.58h.01Z"/>
  <path class="cls-1" d="M150.42,171.39l-1.45.83c-.37-.93-.44-1.83-.2-2.68.24-.85.81-1.61,1.68-2.27,1.11-.83,2.24-1.15,3.4-.96,1.16.19,2.21.91,3.13,2.14.96,1.27,1.38,2.51,1.25,3.71s-.71,2.19-1.76,2.98c-1.01.76-2.1,1.04-3.26.83s-2.21-.93-3.15-2.18c-.06-.08-.14-.19-.25-.35l5.65-4.25c-.67-.8-1.39-1.26-2.14-1.38-.76-.12-1.45.05-2.08.53-.47.35-.78.78-.93,1.28s-.11,1.09.1,1.78h0ZM156.19,170.29l-4.23,3.18c.54.59,1.06.95,1.56,1.07.78.19,1.5.03,2.15-.46.59-.44.94-1.01,1.04-1.71.1-.7-.07-1.39-.52-2.08h0Z"/>
  <path class="cls-1" d="M139.57,174.63l5.53,11.86-4.45,2.07c-.91.42-1.69.64-2.35.66-.66,0-1.26-.16-1.8-.51-.54-.35-.94-.8-1.19-1.35-.24-.51-.32-1.05-.25-1.62.07-.58.31-1.13.74-1.67-.82.12-1.53.02-2.16-.3-.62-.33-1.09-.84-1.42-1.53-.26-.56-.38-1.13-.37-1.71,0-.59.13-1.09.35-1.51s.57-.82,1.03-1.19c.46-.38,1.07-.74,1.82-1.09l4.52-2.11h0ZM138.65,176.76l-2.95,1.38c-.51.24-.85.42-1.04.55-.33.23-.58.48-.75.75-.17.26-.27.58-.29.94s.05.73.23,1.11c.21.44.5.77.88.99s.8.3,1.26.25c.46-.06,1.07-.26,1.83-.61l2.74-1.28-1.9-4.08h-.01ZM141.21,182.24l-2.56,1.2c-.7.32-1.17.6-1.43.83-.34.3-.55.64-.63,1.01-.07.37,0,.76.18,1.18.18.39.44.7.77.91s.69.29,1.1.24c.4-.05,1.03-.28,1.88-.67l2.37-1.1-1.67-3.58v-.02Z"/>
  <path class="cls-1" d="M127.76,179.73l2.98,9-1.37.45-.45-1.36c-.14.75-.32,1.28-.55,1.58s-.52.51-.88.63c-.51.17-1.09.18-1.73.03l.06-1.59c.45.1.85.08,1.23-.04.33-.11.6-.31.8-.6.2-.29.3-.63.29-1.02,0-.6-.12-1.22-.33-1.86l-1.56-4.71,1.53-.5h-.02Z"/>
  <path class="cls-1" d="M115.32,184.32c.47-.62.96-1.09,1.45-1.41s1.05-.55,1.67-.68c1.02-.22,1.85-.14,2.51.24.65.38,1.07.95,1.23,1.73.1.45.09.89-.04,1.31-.12.42-.33.78-.61,1.08-.29.3-.62.55-1.02.76-.29.15-.74.33-1.34.54-1.23.43-2.13.81-2.68,1.15.04.22.07.35.08.41.14.64.38,1.06.74,1.25.48.27,1.11.32,1.9.14.74-.16,1.26-.41,1.55-.74.3-.34.46-.85.48-1.54l1.58-.12c0,.69-.11,1.27-.34,1.74s-.63.88-1.18,1.23c-.56.35-1.23.61-2.03.78-.79.17-1.45.22-1.99.14s-.95-.23-1.24-.46-.53-.55-.72-.96c-.11-.26-.24-.73-.39-1.43l-.45-2.09c-.32-1.46-.55-2.38-.7-2.75s-.36-.71-.64-1.03l1.64-.36c.23.29.42.65.56,1.07h-.02ZM116.21,187.79c.52-.36,1.33-.74,2.44-1.15.62-.23,1.06-.44,1.3-.61.24-.17.41-.39.51-.64.1-.26.12-.52.06-.79-.09-.42-.33-.73-.7-.94-.38-.21-.87-.25-1.48-.12-.6.13-1.11.38-1.53.75-.41.37-.68.8-.8,1.31-.09.39-.06.93.09,1.62l.12.58h-.01Z"/>
  <path class="cls-1" d="M110.37,183.98l.82,9.44-1.44.12-.12-1.34c-.6,1.1-1.56,1.7-2.87,1.82-.57.05-1.1,0-1.6-.17-.49-.16-.88-.4-1.14-.71-.27-.31-.47-.69-.6-1.14-.08-.29-.16-.81-.22-1.55l-.5-5.81,1.6-.14.5,5.74c.06.65.16,1.13.31,1.45.15.31.4.55.73.72s.71.23,1.14.19c.68-.06,1.25-.33,1.71-.8.46-.48.63-1.32.53-2.53l-.45-5.16,1.6-.14h0Z"/>
  <path class="cls-1" d="M93.27,184.49l-.05,1.2c.64-.92,1.54-1.35,2.7-1.31.76.03,1.44.27,2.06.71.62.44,1.08,1.04,1.4,1.8.32.76.46,1.62.42,2.59-.04.95-.23,1.8-.57,2.55-.35.76-.84,1.33-1.49,1.71-.65.39-1.36.56-2.14.53-.57-.02-1.07-.16-1.51-.42s-.79-.59-1.05-.98l-.18,4.69-1.6-.06.51-13.07,1.49.06h.01ZM98.16,189.41c.05-1.21-.17-2.13-.66-2.75-.49-.62-1.08-.94-1.77-.97-.7-.03-1.31.24-1.82.79-.51.55-.79,1.42-.84,2.6-.05,1.3.16,2.26.64,2.88s1.08.95,1.81.98c.71.03,1.32-.24,1.82-.8s.78-1.47.83-2.73h-.01Z"/>
  <path class="cls-1" d="M88.64,186.97h-1.61c.01-.65-.15-1.17-.5-1.57-.35-.4-.88-.66-1.61-.78s-1.29-.06-1.69.18c-.4.24-.63.56-.7.96-.06.36.05.67.33.92.19.18.71.44,1.53.8,1.12.48,1.88.87,2.3,1.15s.71.64.88,1.05c.17.42.22.85.15,1.31-.07.42-.23.79-.47,1.11-.25.33-.56.58-.92.76-.28.14-.64.24-1.08.3-.45.06-.91.05-1.4-.03-.73-.12-1.36-.33-1.88-.63s-.88-.65-1.09-1.06c-.21-.4-.31-.92-.31-1.54l1.58.04c0,.49.14.9.43,1.23.29.32.75.54,1.37.64.73.12,1.27.08,1.62-.11.35-.19.55-.45.6-.77.03-.21,0-.4-.1-.59s-.28-.37-.54-.52c-.15-.08-.59-.29-1.34-.63-1.07-.48-1.82-.85-2.23-1.12s-.72-.6-.91-1c-.19-.41-.25-.88-.16-1.42.09-.53.32-1,.7-1.42s.89-.71,1.51-.87c.62-.16,1.3-.18,2.04-.06,1.22.2,2.1.6,2.66,1.21.56.61.84,1.42.86,2.44l-.02.02Z"/>
  <path class="cls-1" d="M72.06,184.51l-.52,1.53-4.67-1.6.52-1.53,4.67,1.6Z"/>
  <path class="cls-1" d="M60.46,175.74l-6.54,11.33-1.5-.87,2.69-4.65-5.89-3.4-2.69,4.65-1.5-.87,6.54-11.33,1.5.87-3.08,5.34,5.89,3.4,3.08-5.34,1.5.87Z"/>
  <path class="cls-1" d="M43.21,165.69c.78-.03,1.45.05,2.01.22s1.09.46,1.58.85c.82.65,1.29,1.34,1.41,2.09s-.06,1.43-.55,2.05c-.29.36-.63.63-1.04.8-.4.17-.81.24-1.22.21s-.82-.13-1.23-.3c-.3-.13-.72-.36-1.27-.7-1.11-.68-1.98-1.13-2.59-1.34-.14.17-.23.28-.27.32-.41.51-.57.97-.5,1.37.1.54.46,1.06,1.1,1.56.59.47,1.11.71,1.56.72s.95-.19,1.5-.61l1.1,1.14c-.53.44-1.05.72-1.56.84-.51.12-1.08.08-1.71-.13s-1.26-.56-1.9-1.07c-.64-.5-1.09-.98-1.37-1.45-.28-.46-.42-.88-.43-1.25s.09-.76.28-1.17c.13-.25.41-.65.85-1.21l1.33-1.68c.92-1.17,1.48-1.94,1.67-2.29.19-.35.32-.74.39-1.15l1.32,1.04c-.08.36-.23.74-.47,1.12v.02ZM41.09,168.59c.61.17,1.42.56,2.44,1.15.58.33,1.01.54,1.3.62s.56.07.82-.02.47-.24.65-.46c.27-.34.36-.72.28-1.14s-.36-.83-.85-1.22c-.49-.38-1-.62-1.55-.7-.55-.09-1.05,0-1.52.21-.36.18-.76.54-1.2,1.1l-.37.46Z"/>
  <path class="cls-1" d="M40.29,161.61l-9.29,9.22-1.13-1.14,5.3-5.26-5.41.02-1.46-1.48,5.05.09,1.42-7.03,1.4,1.41-1.23,5.64,1.57.04,2.67-2.65,1.13,1.14h-.02Z"/>
  <path class="cls-1" d="M33.4,154.4l-10.28,8.09-.99-1.26,5.86-4.61-5.38-.6-1.29-1.63,5,.67,2.22-6.82,1.22,1.56-1.87,5.46,1.56.22,2.95-2.32.99,1.26v-.02Z"/>
  <path class="cls-1" d="M27.08,145.89l-7.96,5.14-.87-1.35,7.96-5.14.87,1.35Z"/>
  <path class="cls-1" d="M24.09,141.47l-8.55,4.09-.62-1.3,1.2-.57c-.55-.07-1.05-.26-1.52-.59-.47-.32-.84-.77-1.11-1.34-.3-.63-.42-1.22-.35-1.75s.3-.99.69-1.38c-1.32-.2-2.24-.84-2.76-1.92-.41-.85-.48-1.61-.23-2.29s.87-1.25,1.84-1.72l5.87-2.81.69,1.44-5.39,2.58c-.58.28-.97.52-1.18.74s-.33.48-.37.81.02.65.18.98c.29.6.73,1,1.32,1.21s1.32.1,2.21-.32l4.97-2.38.69,1.45-5.56,2.66c-.64.31-1.07.66-1.28,1.05-.21.39-.19.85.07,1.39.2.41.48.73.86.98.38.24.81.34,1.3.3s1.12-.25,1.9-.62l4.44-2.12.69,1.45v-.02Z"/>
  <path class="cls-1" d="M17.49,126.26l-9,2.96-.5-1.53,9-2.96.5,1.53Z"/>
  <path class="cls-1" d="M16.04,121.94l-1.27.29-8.09-4.34c.19.66.34,1.24.46,1.75l.86,3.77-1.27.29-1.72-7.55,1.04-.24,7.01,3.67,1.29.72c-.21-.69-.39-1.34-.53-1.96l-.97-4.27,1.35-.31,1.86,8.18h-.02Z"/>
  <path class="cls-1" d="M13.18,105.23l-1.19.12c1,.5,1.55,1.33,1.67,2.49.08.75-.06,1.46-.41,2.14-.35.67-.88,1.22-1.59,1.64-.71.42-1.54.68-2.51.78-.94.1-1.81.03-2.61-.21-.8-.23-1.43-.65-1.91-1.23-.47-.59-.75-1.27-.83-2.04-.06-.57.01-1.09.2-1.55.19-.47.47-.86.83-1.18l-4.67.48-.16-1.59,13.02-1.33.15,1.48h.01ZM8.99,110.77c1.21-.12,2.08-.47,2.63-1.04.55-.57.78-1.2.71-1.89-.07-.7-.42-1.26-1.04-1.69s-1.52-.58-2.69-.46c-1.29.13-2.21.48-2.77,1.04-.55.56-.79,1.2-.72,1.93.07.71.42,1.27,1.05,1.69s1.57.56,2.82.43h.01Z"/>
  <path class="cls-1" d="M11.87,94.22c.49.61.83,1.19,1.03,1.74.19.56.29,1.15.27,1.78-.02,1.04-.3,1.83-.82,2.38-.52.55-1.18.81-1.97.79-.46-.01-.89-.13-1.26-.35-.38-.22-.68-.5-.9-.85-.22-.35-.39-.74-.5-1.17-.08-.32-.14-.79-.21-1.43-.12-1.3-.29-2.26-.49-2.88-.22-.01-.36-.02-.42-.02-.65-.02-1.12.13-1.39.42-.37.4-.57,1.01-.59,1.82-.02.76.1,1.32.36,1.68.26.37.72.64,1.39.83l-.25,1.57c-.67-.16-1.21-.41-1.61-.74-.41-.34-.71-.82-.92-1.44s-.3-1.34-.28-2.16c.02-.81.13-1.46.33-1.96s.45-.87.74-1.1c.29-.23.66-.39,1.1-.47.27-.05.77-.06,1.48-.05l2.14.05c1.49.04,2.44.02,2.84-.04s.78-.19,1.15-.38l-.04,1.68c-.34.16-.73.26-1.18.29h0ZM8.28,94.26c.22.59.41,1.47.54,2.64.08.66.18,1.13.29,1.41.11.28.28.49.51.65.23.15.48.23.76.24.43.01.79-.14,1.08-.46.29-.32.45-.79.46-1.41.01-.62-.11-1.17-.37-1.66s-.62-.85-1.09-1.09c-.36-.18-.89-.28-1.6-.3h-.59v-.02Z"/>
  <path class="cls-1" d="M10.31,83.23l-1.58-.32.97-4.84,1.58.32s-.97,4.84-.97,4.84Z"/>
</svg>